<svg viewBox="0 0 32 32" xmlns="http://www.w3.org/2000/svg"><path d="M16 7c1.9711 0 3.831.7224 5.2758 2.0006L25 9c1.6569 0 3 1.3431 3 3v9c0 1.6569-1.3431 3-3 3H7c-1.6569 0-3-1.3431-3-3v-9c0-1.6569 1.3431-3 3.0002-3l3.724.0006C12.169 7.7224 14.0289 7 16 7zm0 2c-1.5839 0-3.0686.6212-4.182 1.7143l-.2919.2865L7 11c-.5523 0-1 .4477-1 1v9c0 .5523.4477 1 1 1h18c.5523 0 1-.4477 1-1v-9c0-.5523-.4477-1-.9998-1l-4.5263.0008-.2919-.2865C19.0686 9.6212 17.584 9 16 9zm0 2c2.7614 0 5 2.2386 5 5s-2.2386 5-5 5-5-2.2386-5-5 2.2386-5 5-5zm0 2c-1.6569 0-3 1.3431-3 3s1.3431 3 3 3 3-1.3431 3-3-1.3431-3-3-3zm7.4667-1c.81 0 1.4666.6566 1.4666 1.4667 0 .81-.6566 1.4666-1.4666 1.4666-.81 0-1.4667-.6566-1.4667-1.4666 0-.81.6566-1.4667 1.4667-1.4667z"/></svg>