<svg viewBox="0 0 32 32" xmlns="http://www.w3.org/2000/svg"><path d="M20 4c1.6569 0 3 1.2398 3 2.7692V11c1.5977 0 2.9037 1.249 2.995 2.8237L26 14v2h-3v9.2308C23 26.7602 21.6569 28 20 28h-9c-1.6569 0-3-1.2398-3-2.7692V6.7692C8 5.2398 9.3431 4 11 4h9zm-8.5 9c-.7797 0-1.4204.5949-1.4931 1.3555L10 14.5v10.591c0 .502.4477.909 1 .909h9c.5523 0 1-.407 1-.909V16h-8v-1.5c0-.8284-.6716-1.5-1.5-1.5zm4 9c.8284 0 1.5.6716 1.5 1.5s-.6716 1.5-1.5 1.5-1.5-.6716-1.5-1.5.6716-1.5 1.5-1.5zm7.5-8h1c0-.5128-.386-.9355-.8834-.9933L23 13h-8.3368c.1477.3108.2509.647.3014 1H23zm-3-8h-9c-.5523 0-1 .407-1 .909v4.4278V11h11V6.909C21 6.407 20.5523 6 20 6z" /></svg>