<?xml version="1.0" encoding="utf-8"?>
<!-- Generator: Adobe Illustrator 24.1.0, SVG Export Plug-In . SVG Version: 6.00 Build 0)  -->
<svg version="1.1" xmlns="http://www.w3.org/2000/svg" xmlns:xlink="http://www.w3.org/1999/xlink" x="0px" y="0px"
	 viewBox="0 0 40 40">
<path id="Shape" d="M34,26h2v6c0,2.2-1.8,4-4,4h-6v-2h6c1.1,0,2-0.9,2-2V26z M6,32v-6H4v6c0,2.2,1.8,4,4,4h6v-2H8
	C6.9,34,6,33.1,6,32z M22,12h-2v8h-2v2h4V12z M12,15c0,1.1,0.9,2,2,2s2-0.9,2-2s-0.9-2-2-2S12,13.9,12,15z M6,8c0-1.1,0.9-2,2-2h6V4
	H8C5.8,4,4,5.8,4,8v6h2V8z M32,4h-6v2h6c1.1,0,2,0.9,2,2v6h2V8C36,5.8,34.2,4,32,4z M29,15c0-1.1-0.9-2-2-2s-2,0.9-2,2s0.9,2,2,2
	S29,16.1,29,15z M23,25c0.1,1.6-1.2,2.9-2.8,3c-0.1,0-0.1,0-0.2,0c-1.6,0.1-2.9-1.2-3-2.8c0-0.1,0-0.2,0-0.2h-2c0,2.7,2.2,5,5,5
	s5-2.2,5-5H23z"/>
</svg>
