<?xml version="1.0" encoding="utf-8"?>
<!-- Generator: Adobe Illustrator 23.0.1, SVG Export Plug-In . SVG Version: 6.00 Build 0)  -->
<svg version="1.1" id="Layer_1" xmlns="http://www.w3.org/2000/svg" xmlns:xlink="http://www.w3.org/1999/xlink" x="0px" y="0px"
	 viewBox="0 0 32 32" style="enable-background:new 0 0 32 32;" xml:space="preserve">
<title>Icons/24/home-internet_cpu_24</title>
<desc>Created with Sketch.</desc>
<path d="M9,3h2v3H9V3z M13,3h2v3h-2V3z M17,3h2v3h-2V3z M21,3h2v3h-2V3z M9,26h2v3H9V26z M13,26h2v3h-2V26z M17,26h2v3h-2V26z
	 M21,26h2v3h-2V26z M3,9h3v2H3V9z M3,13h3v2H3V13z M3,17h3v2H3V17z M3,21h3v2H3V21z M26,9h3v2h-3V9z M26,13h3v2h-3V13z M26,17h3v2
	h-3V17z M26,21h3v2h-3V21z M9,25H7V7h2h14h2v18h-2H9z M9,23h14V9H9V23z"/>
</svg>
