<?xml version="1.0" encoding="UTF-8"?>
<svg viewBox="0 0 40 40" version="1.1" xmlns="http://www.w3.org/2000/svg" xmlns:xlink="http://www.w3.org/1999/xlink">
    <!-- Generator: Sketch 49.3 (51167) - http://www.bohemiancoding.com/sketch -->
    <title>Icons/32/Redirect_32_2</title>
    <desc>Created with Sketch.</desc>
    <defs>
        <path d="M29.5,6.5 L29.5,17.64 L30.68,14.93 L32.5,16.07 L29.26,20.5 L27.74,20.5 L24.5,16.07 L26.32,14.93 L27.5,17.64 L27.5,8.5 L15.5,8.5 L15.5,6.5 L27.5,6.5 L29.5,6.5 Z M22.48,35 L23.48,35 L27,31.44 L20.17,24.61 L17.39,27.39 C15.3296139,26.2887716 13.618445,24.6330252 12.45,22.61 L15.23,19.83 L8.56,13 L5,16.56 L5,17.56 C5.14537494,27.1465183 12.8931738,34.8765877 22.48,35 Z M7,17.38 L8.56,15.82 L12.41,19.82 L10,22.23 L10.33,22.88 C11.8036115,25.7758525 14.1898373,28.1058492 17.12,29.51 L17.77,29.84 L20.17,27.44 L24.17,31.44 L22.62,33 L22.48,33 C13.9578296,32.9346931 7.06530686,26.0421704 7,17.52 L7,17.38 Z" id="path-1"></path>
    </defs>
    <g id="Icons/32/Redirect_32_2" stroke="none" stroke-width="1" fill="none" fill-rule="evenodd">
        <mask id="mask-2" fill="white">
            <use xlink:href="#path-1"></use>
        </mask>
        <use id="Mask" fill="#000000" fill-rule="nonzero" xlink:href="#path-1"></use>
    </g>
</svg>