<?xml version="1.0" encoding="utf-8"?>
<!-- Generator: Adobe Illustrator 22.1.0, SVG Export Plug-In . SVG Version: 6.00 Build 0)  -->
<svg version="1.1" id="Layer_1" xmlns="http://www.w3.org/2000/svg" xmlns:xlink="http://www.w3.org/1999/xlink" x="0px" y="0px"
	 viewBox="0 0 40 40" style="enable-background:new 0 0 40 40;" xml:space="preserve">
<style type="text/css">
	.st0{fill:#020202;}
</style>
<g id="Group">
	<path id="Combined-Shape" class="st0" d="M30,28.8v2.3h-2v-2.3c-0.6-0.3-1-1-1-1.7c0-1.1,0.9-2,2-2s2,0.9,2,2
		C31,27.8,30.6,28.4,30,28.8z M22,27.1H4V7h27v7.4c0.6,0.3,1.2,0.7,1.7,1.2c0.8,0.9,1.3,2.1,1.3,3.4h-2c0-0.8-0.3-1.5-0.8-2
		c-0.6-0.6-1.4-1-2.2-1c-1.7,0-3,1.3-3,3v2h10V28c0,3.9-3.1,7-7,7s-7-3.1-7-7V27.1z M22,25.1v-2h-2v-2h3.8H24v-2
		c0-2.5,1.8-4.6,4.2-5H6v11H22z M29,12.1V9H6v3.1H29z M8.1,23.2v-2h3.8v2H8.1z M14,23v-2h3.8v2H14z M24,23V28c0,2.8,2.2,5,5,5
		s5-2.2,5-5V23H24z"/>
</g>
</svg>
