<svg viewBox="0 0 20 20" xmlns="http://www.w3.org/2000/svg"><path d="M9.2652 11.8124c0-.4099.3292-.7425.7348-.7425s.7348.3326.7348.7425a.7441.7441 0 0 1-.245.5533V14H12v-.9642c0-.5937.1593-1.1697.5261-1.6335.291-.3679.522-.6383.6983-.8156.8258-.8304 1.2958-1.9432 1.2958-3.1302C14.5202 4.992 12.4986 2.99 10 2.99S5.4798 4.992 5.4798 7.4565c0 1.175.4606 2.2776 1.2716 3.1057.179.1827.4166.4611.7175.8393.37.4648.5311 1.0433.5311 1.6397V14h1.5101v-1.6343a.7441.7441 0 0 1-.245-.5533zm-3.2102-.5538C5.0647 10.2474 4.5 8.8957 4.5 7.4566 4.5 4.4406 6.9646 2 10 2s5.5 2.4407 5.5 5.4565c0 1.4538-.5763 2.818-1.5844 3.832-.1446.1454-.3544.3908-.6241.7319-.228.2882-.2915.6106-.2915.9796v2H7v-2c0-.3707-.0646-.6892-.2946-.978-.2816-.354-.5-.6098-.6504-.7634zM7 16.515v-.99h6v.99H7zM8 18v-1h4v1H8zm-.9954-9.1571l-.6874-.7055c.989-.9839 2.309-1.5182 3.6812-1.5226 1.384-.0045 2.7181.5303 3.7155 1.5226l-.6874.7055c-.8109-.8068-1.896-1.2417-3.025-1.238-1.1192.0035-2.193.438-2.997 1.238zm2.1953 2.0497l-.6874-.7055a2.0679 2.0679 0 0 1 1.4952-.6022 2.067 2.067 0 0 1 1.4288.6022l-.6874.7055a1.0927 1.0927 0 0 0-.7568-.3178 1.0938 1.0938 0 0 0-.7924.3178zM8.1034 9.8692l-.6874-.7054c.695-.6916 1.6225-1.065 2.5846-1.064.959.0011 1.883.3746 2.576 1.064l-.6874.7054c-.5077-.505-1.1844-.7785-1.8898-.7794-.7075-.0008-1.3868.2728-1.896.7794z"/></svg>