<?xml version="1.0" encoding="utf-8"?>
<!-- Generator: Adobe Illustrator 22.1.0, SVG Export Plug-In . SVG Version: 6.00 Build 0)  -->
<svg version="1.1" id="Слой_1" xmlns="http://www.w3.org/2000/svg" xmlns:xlink="http://www.w3.org/1999/xlink" x="0px" y="0px"
	 viewBox="0 0 40 40" style="enable-background:new 0 0 40 40;" xml:space="preserve">
<title>voice-message_32</title>
<desc>Created with Sketch.</desc>
<g id="voice-message_32">
	<g id="Icons_x2F_32_x2F_Voice-message_x5F_32" transform="translate(2.000000, 4.000000)">
		<g id="Mask">
			<path id="path-1_1_" d="M34,16c0,8.8-7.2,16-16,16c-2.7,0-5.3-0.7-7.6-2l-7,2L0,28.2L3.2,22C2.4,20.1,2,18,2,16C2,7.2,9.2,0,18,0
				S34,7.2,34,16z M32,16c0-7.7-6.3-14-14-14S4,8.3,4,16c0,2,0.4,3.9,1.2,5.7l0.2,0.4l-3,5.8l1.7,1.8l6.5-1.9L11,28
				c2.1,1.2,4.6,1.9,7,1.9C25.7,30,32,23.7,32,16z M9,20v-8h2v8H9z M17,22V10h2v12H17z M13,18v-4h2v4H13z M21,17v-2h2v2H21z M25,20
				v-8h2v8H25z"/>
		</g>
	</g>
</g>
</svg>
