<?xml version="1.0" encoding="utf-8"?>
<svg version="1.1" xmlns="http://www.w3.org/2000/svg" xmlns:xlink="http://www.w3.org/1999/xlink" x="0px" y="0px"
	 viewBox="0 0 40 40" style="enable-background:new 0 0 40 40;" xml:space="preserve">
<path id="Shape" d="M10.1,25.5C8.2,24.7,6.9,23,6.6,21H5v-2h1.6c0.5-2.9,3-5,5.9-5h0c1.1,0,2.1,0.3,3,0.8c1.2-1.2,2.8-1.9,4.5-1.8
	c1.3,0,2.7,0.4,3.8,1.1l-1.6,1.4C21.5,15.2,20.7,15,20,15c-1.1-0.1-2.2,0.3-2.9,1.1c0.6,0.7,1.1,1.6,1.3,2.5l-1.9,1.5
	c0-0.1,0-0.1,0-0.2c0-2.2-1.8-4-4-4h0c-2.1,0-3.8,1.6-4,3.7c-0.1,2.1,1.3,3.9,3.4,4.2L10.1,25.5z M35,19v2h-1.6
	c-0.5,2.9-2.9,5-5.9,5c-2.9,0-5.4-2-5.9-4.9l-11.5,9.5l-0.6-0.8l-0.6-0.8l9.9-8.2l3-2.5L27,14l5-4.2l1.3,1.5l-3.7,3
	c2,0.8,3.4,2.5,3.7,4.6H35z M31.5,20c0-2.1-1.6-3.9-3.8-4l-4.2,3.5c0,0.2,0,0.3-0.1,0.5c0,1.4,0.8,2.7,2,3.5c1.2,0.7,2.8,0.7,4,0
	S31.5,21.4,31.5,20L31.5,20z"/>
</svg>
