<svg id="Слой_1" data-name="Слой 1" xmlns="http://www.w3.org/2000/svg" viewBox="0 0 40 40"><title>Сountry_house_3</title><path d="M31,27.2138V20h2v-3.357L23.4736,5H16.5264L14.0718,8H10v4.9765L7,16.6431V20H9v7.1164a39.5592,39.5592,0,0,0-4.4644,1.9973l.9288,1.7715c9.8232-5.1494,19.3813-5.1572,28.5463-.0137l.9786-1.7441A34.5981,34.5981,0,0,0,31,27.2138Zm-20-.7814V18H9V17.357l3-3.6665V10h3.019l2.4546-3h5.0528L31,17.357V18H29v8.4856A29.0741,29.0741,0,0,0,11,26.4324ZM28.3516,30.563l-.7032,1.8731a21.1792,21.1792,0,0,0-15.2973,0l-.7022-1.8731A23.1945,23.1945,0,0,1,28.3516,30.563Z"/></svg>