<?xml version="1.0" encoding="utf-8"?>
<!-- Generator: Adobe Illustrator 22.1.0, SVG Export Plug-In . SVG Version: 6.00 Build 0)  -->
<svg version="1.1" id="Ready" xmlns="http://www.w3.org/2000/svg" xmlns:xlink="http://www.w3.org/1999/xlink" x="0px" y="0px"
	viewBox="0 0 40 40" style="enable-background:new 0 0 40 40;" xml:space="preserve">
<path d="M21.5,36h1l3.5-3.6l-6.8-6.8l-2.8,2.8c-2.1-1.1-3.8-2.8-4.9-4.8l2.8-2.8L7.6,14L4,17.6v1C4.1,28.1,11.9,35.9,21.5,36z
	 M6,18.4l1.6-1.6l3.8,4L9,23.2l0.3,0.6c1.5,2.9,3.9,5.2,6.8,6.6l0.6,0.3l2.4-2.4l4,4L21.6,34h-0.1C13,33.9,6.1,27,6,18.5V18.4z
	 M19.6,22.9l-2.7-3l1.9-3.7c-0.5-1.2-0.7-2.4-0.7-3.6c0-5.1,4.1-9.2,9.1-9.2s9.1,4.1,9.1,9.2c0,5-4.1,9.1-9.1,9.1
	c-1.4,0-2.7-0.3-3.8-0.8L19.6,22.9z M19.1,19.6l0.9,1l3.4-1.7l0.4,0.2c1,0.5,2.1,0.8,3.3,0.8c4,0,7.3-3.3,7.3-7.3
	c0-4.1-3.3-7.4-7.3-7.4s-7.3,3.3-7.3,7.4c0,1.1,0.2,2.2,0.7,3.2l0.2,0.4L19.1,19.6z M31.7,11.5h-8.5v-2h8.5V11.5z M28.7,15.9h-5.5
	v-2h5.5V15.9z"/>
</svg>
