<svg id="Слой_1" data-name="Слой 1" xmlns="http://www.w3.org/2000/svg" viewBox="0 0 32 32"><path class="cls-1" d="M20.0715,12.2654a1.1792,1.1792,0,1,1-1.6952.0308A1.1992,1.1992,0,0,1,20.0715,12.2654Zm2.227,1.691V14h1.9973v-.1469a6.2,6.2,0,0,0-6.28-5.6516H18v2h.0524A4.203,4.203,0,0,1,22.2985,13.9564Zm3.3982-.2586V14H27.694v-.4055A9.52,9.52,0,0,0,18.0859,4.78H18v2h.1222A7.5216,7.5216,0,0,1,25.6967,13.6978ZM28,26v2H4V26H7V15a3.0012,3.0012,0,0,1,2-2.8293V10a3.0012,3.0012,0,0,1,2-2.8293V4h2V7.1707A3.0012,3.0012,0,0,1,15,10v2.1707A3.0012,3.0012,0,0,1,17,15v3h4.9919a3,3,0,0,1,3,2.996L24.9987,26ZM11,12h2V10a1,1,0,0,0-2,0Zm4,3a1,1,0,0,0-1-1H10a1,1,0,0,0-1,1V26h6Zm8.0059,11-.002-5a1.0111,1.0111,0,0,0-1.012-1H17v6Z"/></svg>