<?xml version="1.0" encoding="utf-8"?>
<!-- Generator: Adobe Illustrator 22.1.0, SVG Export Plug-In . SVG Version: 6.00 Build 0)  -->
<svg version="1.1" id="Layer_1" xmlns="http://www.w3.org/2000/svg" xmlns:xlink="http://www.w3.org/1999/xlink" x="0px" y="0px"
	 viewBox="0 0 40 40" style="enable-background:new 0 0 40 40;" xml:space="preserve">
<path id="Combined-Shape_1_" d="M10.5,8.9l-1-1.7C12.8,5.1,16.1,4,20,4c4.1,0,7.3,1,10.6,3.2l-1.1,1.7c-3-2-5.8-2.9-9.5-2.9
	C16.5,6,13.6,7,10.5,8.9z M6.9,17.6l-1.7-1C8.4,11.2,13.7,8,20,8c6.2,0,11.6,3.1,14.9,8.4l-1.7,1C30.3,12.8,25.5,10,20,10
	C14.4,10,9.7,12.8,6.9,17.6z M10.8,30.5l-1.7,1.1C7.4,28.9,7,27.2,7,24c0-6,6-12,13-12c7.6,0,13,5.4,13,11c0,3.3-2.1,5-5,5
	c-0.8,0-1.7-0.1-2.4-0.5c-0.7-0.4-1.3-0.9-1.8-1.5c-0.4-0.5-0.7-0.9-1-1.4c-0.3-0.5-0.5-1-0.9-1.5c-0.3-0.4-0.6-0.7-1-0.9
	C20.6,22,20.3,22,20,22c-2.9,0-3.6,2-2.1,5.6c0.6,1.4,1.8,2.7,3.3,4c0.9,0.7,1.8,1.3,2.7,1.9c0.3,0.2,0.6,0.4,0.9,0.5
	c0.2,0.1,0.3,0.1,0.3,0.2L24.3,36c-0.1,0-0.2-0.1-0.4-0.2c-0.3-0.2-0.6-0.3-1-0.5c-1-0.6-2-1.3-3-2c-1.8-1.5-3.2-3-3.9-4.7
	c-2-4.9-0.6-8.6,4-8.6c0.8,0,1.5,0.1,2.2,0.6c0.7,0.4,1.2,1.1,1.7,1.8c0.6,0.9,1,1.8,1.7,2.6c0.5,0.5,1.1,0.9,1.8,1
	c0.2,0,0.4,0,0.7,0c1.9,0,3-0.9,3-3c0-4.4-4.6-9-11-9c-5.9,0-11,5.1-11,10C9,26.9,9.3,28.2,10.8,30.5z M16.7,32.3l-1.4,1.4
	C12.6,31.1,11,27.8,11,24c0-4.4,4.3-8,9-8c4.2,0,6.6,1.9,8.9,6.6l-1.8,0.9c-2-4-3.8-5.4-7.1-5.4c-3.7,0-7,2.8-7,6S14.4,30,16.7,32.3
	z M28,30v2c-4.1,0-7.7-2.9-8.9-6.7l1.9-0.6C21.9,27.7,24.8,30,28,30z"/>
</svg>
