<?xml version="1.0" encoding="utf-8"?>
<!-- Generator: Adobe Illustrator 22.0.1, SVG Export Plug-In . SVG Version: 6.00 Build 0)  -->
<svg version="1.1" id="Слой_1" xmlns="http://www.w3.org/2000/svg" xmlns:xlink="http://www.w3.org/1999/xlink" x="0px" y="0px"
	 viewBox="0 0 32 32" style="enable-background:new 0 0 32 32;" xml:space="preserve">
<title>Artboard Copy 24</title>
<desc>Created with Sketch.</desc>
<path id="Combined-Shape" d="M21.6,23.1l-9.8-9.8C10.2,14.8,9,16.6,9,18.9c0,3.9,3.1,7,7,7C18.3,25.9,20.4,24.8,21.6,23.1z
	 M22.6,21.2c0.2-0.7,0.4-1.5,0.4-2.3c0-2.4-0.8-3.7-2.6-5c0.1,0.8,0.2,1.8-0.2,2.6c-0.3,0.5-0.6,0.8-1.1,1.1L22.6,21.2z M18.8,17.4
	c0-1.7-0.1-3.3-0.3-5c-0.3-1.8-1.1-3.3-2.5-4.7c-0.6,1.4-1.5,2.7-2.7,4.1C13.3,11.8,18.8,17.4,18.8,17.4z M24.1,22.7l3.6,3.6
	l-1.4,1.4l-3.2-3.2c-1.6,2.1-4.2,3.4-7.1,3.4c-5,0-9-4-9-9c0-2.7,1.2-4.9,3.4-7.1L4.3,5.7l1.4-1.4l6.1,6.1c1.1-1.2,1.8-2.4,2.3-3.5
	l1.2-2.8l2.1,2.2c1.5,1.5,2.5,3.2,2.9,5.2l1.2,0.8c2.4,1.7,3.5,3.6,3.5,6.6C25,20.3,24.7,21.6,24.1,22.7z"/>
</svg>
