<?xml version="1.0" encoding="utf-8"?>
<!-- Generator: Adobe Illustrator 23.0.4, SVG Export Plug-In . SVG Version: 6.00 Build 0)  -->
<svg version="1.1" id="Слой_1" xmlns="http://www.w3.org/2000/svg" xmlns:xlink="http://www.w3.org/1999/xlink" x="0px" y="0px"
	 viewBox="0 0 40 40" style="enable-background:new 0 0 40 40;" xml:space="preserve">
<title>Fire_32</title>
<path d="M32.2,11c-3.8-6.8-12.4-9.2-19.2-5.4S3.9,18,7.7,24.8s12.4,9.2,19.2,5.4c0.2-0.1,0.4-0.2,0.6-0.4l5,6.2l1.5-1.3l-4.9-6
	C34.3,24.4,35.6,16.9,32.2,11z M20,30c-6.6,0-12-5.4-12-12S13.4,6,20,6s12,5.4,12,12S26.6,30,20,30z M20,18.9l6,3.2l-1,1.8l-4-2.2
	V26h-2v-4.3l-4,2.2L14,22.1L20,18.9z M15.4,19.2l-0.9-1.8l5.4-2.7l5.4,2.7l-0.9,1.8L20,16.9L15.4,19.2z M17,14.2l-0.9-1.8l3.9-1.9
	l4,1.9l-0.9,1.8L20,12.7L17,14.2z"/>
</svg>
