<?xml version="1.0" encoding="utf-8"?>
<!-- Generator: Adobe Illustrator 21.1.0, SVG Export Plug-In . SVG Version: 6.00 Build 0)  -->
<svg version="1.1" id="Layer_1" xmlns="http://www.w3.org/2000/svg" xmlns:xlink="http://www.w3.org/1999/xlink" x="0px" y="0px"
	 viewBox="0 0 40 40" style="enable-background:new 0 0 40 40;" xml:space="preserve">
<style type="text/css">
	.st0{fill:#020202;}
</style>
<path class="st0" d="M29,29.4c0,0.6-0.5,1.1-1.1,1.1H26v4h-9v-4h-2.7c-0.7,0-1.3-0.2-1.8-0.6c-1-0.6-1.5-1.6-1.5-2.7v-9.7
	c0-0.6,0.4-1,1-1s1,0.4,1,1v5h2v-5v-8c0-0.6,0.4-1,1-1s1,0.4,1,1v8h2v-11c0-0.6,0.4-1,1-1s1,0.4,1,1v11h2v-8c0-0.6,0.4-1,1-1
	s1,0.4,1,1v2v1v5h2v-5c0-0.6,0.4-1,1-1s1,0.4,1,1v9V29.4z M28,9.5c-0.4,0-0.7,0.1-1,0.2V9.5c0-1.7-1.3-3-3-3c-0.4,0-0.7,0.1-1,0.2
	V6.5c0-1.7-1.3-3-3-3s-3,1.3-3,3v0.2c-0.3-0.1-0.6-0.2-1-0.2c-1.7,0-3,1.3-3,3v5.2c-0.3-0.1-0.6-0.2-1-0.2c-1.7,0-3,1.3-3,3v9.7
	c0,1.8,0.9,3.4,2.4,4.4c0.8,0.6,1.9,0.9,2.9,0.9H15v4h13v-4c1.7,0,3-1.4,3-3.1v-7.9v-9C31,10.8,29.7,9.5,28,9.5L28,9.5z M15.5,24.5
	c-0.8,0-1.5,0.7-1.5,1.5s0.7,1.5,1.5,1.5c0.8,0,1.5-0.7,1.5-1.5S16.3,24.5,15.5,24.5 M20,21c0-0.8-0.7-1.5-1.5-1.5S17,20.2,17,21
	s0.7,1.5,1.5,1.5S20,21.8,20,21 M25.5,24.5c-0.8,0-1.5,0.7-1.5,1.5s0.7,1.5,1.5,1.5S27,26.8,27,26S26.3,24.5,25.5,24.5 M20.5,24.5
	c-0.8,0-1.5,0.7-1.5,1.5s0.7,1.5,1.5,1.5S22,26.8,22,26S21.3,24.5,20.5,24.5 M25,21c0-0.8-0.7-1.5-1.5-1.5S22,20.2,22,21
	s0.7,1.5,1.5,1.5S25,21.8,25,21"/>
</svg>
