<?xml version="1.0" encoding="utf-8"?>
<!-- Generator: Adobe Illustrator 23.0.3, SVG Export Plug-In . SVG Version: 6.00 Build 0)  -->
<svg version="1.1" id="Слой_1" xmlns="http://www.w3.org/2000/svg" xmlns:xlink="http://www.w3.org/1999/xlink" x="0px" y="0px"
	 viewBox="0 0 20 20" style="enable-background:new 0 0 20 20;" xml:space="preserve">
<style type="text/css">
	.st0{fill-rule:evenodd;clip-rule:evenodd;}
</style>
<path id="Combined-Shape-Copy" class="st0" d="M12.6,2.5L13.5,2c1.6,2.3,2.5,5,2.5,8c0,3-0.9,5.7-2.5,8l-0.9-0.5
	c1.5-2.1,2.4-4.7,2.4-7.5C15,7.2,14.1,4.7,12.6,2.5z M9.9,4.4l0.9-0.5c1.2,1.7,2,3.8,2,6.1c0,2.3-0.7,4.4-2,6.1l-0.9-0.5
	c1.1-1.6,1.8-3.5,1.8-5.6C11.7,7.9,11,6,9.9,4.4z M6.8,6.4l0.9-0.5C8.6,7,9.1,8.4,9.1,10c0,1.6-0.5,3-1.4,4.2l-0.9-0.5
	c0.8-1,1.2-2.3,1.2-3.6C8.1,8.6,7.6,7.4,6.8,6.4z M4,8.2l0.9-0.6c0.6,0.6,1,1.5,1,2.4c0,0.9-0.4,1.8-1,2.4L4,11.8
	c0.5-0.5,0.8-1.1,0.8-1.8C4.8,9.3,4.5,8.6,4,8.2z"/>
</svg>
