<?xml version="1.0" encoding="utf-8"?>
<!-- Generator: Adobe Illustrator 23.0.3, SVG Export Plug-In . SVG Version: 6.00 Build 0)  -->
<svg version="1.1" id="Слой_1" xmlns="http://www.w3.org/2000/svg" xmlns:xlink="http://www.w3.org/1999/xlink" x="0px" y="0px"
	 viewBox="0 0 32 32" style="enable-background:new 0 0 32 32;" xml:space="preserve">
<path id="Combined-Shape" class="st0" d="M20,5l1.7-1c2.1,3.4,3.3,7.3,3.3,11.6c0,4.6-1.4,8.9-3.9,12.4l-1.7-1.1
	c2.2-3.2,3.6-7.1,3.6-11.3C23,11.7,21.9,8.1,20,5z M15.7,7.5l1.7-1c1.7,2.6,2.6,5.7,2.6,9c0,3.6-1.1,7-3.1,9.7l-1.7-1.1
	c1.7-2.4,2.7-5.4,2.7-8.6C18.1,12.6,17.2,9.9,15.7,7.5z M11.4,10.1l1.7-1c1.2,1.9,1.9,4.1,1.9,6.5c0,2.6-0.8,5-2.3,7l-1.7-1.1
	c1.2-1.6,1.9-3.7,1.9-5.9C13.1,13.5,12.5,11.7,11.4,10.1z M7.2,12.6l1.7-1c0.8,1.1,1.2,2.5,1.2,4c0,1.6-0.5,3.1-1.5,4.3L7,18.7
	c0.7-0.9,1.1-2,1.1-3.2C8.1,14.5,7.8,13.4,7.2,12.6z"/>
</svg>
