<?xml version="1.0" encoding="utf-8"?>
<!-- Generator: Adobe Illustrator 23.0.1, SVG Export Plug-In . SVG Version: 6.00 Build 0)  -->
<svg version="1.1" id="Layer_1" xmlns="http://www.w3.org/2000/svg" xmlns:xlink="http://www.w3.org/1999/xlink" x="0px" y="0px"
	 viewBox="0 0 40 40" style="enable-background:new 0 0 40 40;" xml:space="preserve">
<style type="text/css">
	.st0{fill-rule:evenodd;clip-rule:evenodd;}
</style>
<path id="Shape" class="st0" d="M34,31V6H14v25c0,1.1-0.4,2.2-1,3h18C32.7,34,34,32.7,34,31z M36,31c0,2.8-2.2,5-5,5H9
	c-2.8,0-5-2.2-5-5V10h8V4h24V31z M12,31V12H6v19c0,1.7,1.3,3,3,3S12,32.7,12,31z M18,11v3h7v-3H18z M16,9h11v7H16V9z M16,20h16v2H16
	V20z M16,24h16v2H16V24z"/>
</svg>
