<?xml version="1.0" encoding="utf-8"?>

<svg xmlns="http://www.w3.org/2000/svg" xmlns:xlink="http://www.w3.org/1999/xlink" x="0px" y="0px"
	 viewBox="0 0 32 32" style="enable-background:new 0 0 32 32;" xml:space="preserve">
<path id="Path" d="M6.2,23C2.7,18,3.4,11.2,8,7.1s11.5-4.1,16,0s5.3,11,1.7,15.9l-1.6-1.2c1.2-1.7,1.9-3.7,1.9-5.8
	c0-3.6-1.9-6.9-5-8.7s-6.9-1.8-10,0S6,12.4,6,16c0,2.1,0.7,4.1,1.9,5.8L6.2,23z"/>
<circle id="Oval" cx="16" cy="20" r="2.5"/>
<polygon points="22.9,11 22.1,10.5 14.8,19.1 17.2,20.9 "/>
<path d="M16,26c-0.6,0-1,0.4-1,1s0.4,1,1,1s1-0.4,1-1S16.6,26,16,26z"/>
</svg>
