<svg id="Слой_1" data-name="Слой 1" xmlns="http://www.w3.org/2000/svg" viewBox="0 0 40 40"><title>around_spea</title><path d="M20,4A11.01245,11.01245,0,0,0,9,15a10.90234,10.90234,0,0,0,2.2168,6.623L15.49072,27.5h9.01807l4.26758-5.86914A10.89609,10.89609,0,0,0,31,15,11.01245,11.01245,0,0,0,20,4Zm.12317,21.5h-.246l-1.96357-4.90674-.12011-.27051A13.4515,13.4515,0,0,1,19.95569,6.00226C19.97064,6.0022,19.98505,6,20,6s.02966.0022.04474.00226a13.452,13.452,0,0,1,2.16131,14.32147Zm-7.29456-5.061-.01123-.01513A8.91753,8.91753,0,0,1,11,15a9.00933,9.00933,0,0,1,6.09344-8.50909,15.44925,15.44925,0,0,0-1.12762,14.64483L17.72095,25.5H16.50928Zm14.34229.00049L23.49121,25.5H22.277l1.63708-4.09473.12012-.2705A15.44556,15.44556,0,0,0,22.90546,6.49042a8.99271,8.99271,0,0,1,4.26544,13.949ZM16.2583,29l-1.08154,1.1875L16.73242,36h6.53613l1.5459-5.80762L23.74707,29Zm5.47315,5H18.26758l-.80274-3H22.5293Z"/></svg>