<svg id="Слой_1" data-name="Слой 1" xmlns="http://www.w3.org/2000/svg" viewBox="0 0 40 40"><defs><style>.cls-1{fill:#0e0e0e;}</style></defs><title>per_second</title><path class="cls-1" d="M21,15H19V12h2ZM19,32h2V29H19Zm8-9h3V21H27ZM10,23h3V21H10Zm15.3-7.7-4.8,4.8A.90151.90151,0,0,0,20,20a2,2,0,1,0,2,2,.90151.90151,0,0,0-.1-.5l4.8-4.8Zm5.3-2.5A14.27407,14.27407,0,0,1,34,22,14,14,0,0,1,6,22a14.27407,14.27407,0,0,1,3.4-9.2l-.9-.9L6.7,13.7,5.3,12.3l5-5,1.4,1.4L9.9,10.5l.9.9A13.8063,13.8063,0,0,1,19,8V7H18V5h4V7H21V8.1a14.34681,14.34681,0,0,1,8.2,3.4l.9-.9L28.3,8.8l1.4-1.4,5,5-1.4,1.4L31.5,12ZM32,22A12,12,0,1,0,20,34,12.03528,12.03528,0,0,0,32,22Z"/></svg>