<svg id="Слой_1" data-name="Слой 1" xmlns="http://www.w3.org/2000/svg" viewBox="0 0 40 40"><title>warm_welcome</title><rect x="23" y="7" width="2" height="5"/><rect x="19" y="5" width="2" height="7"/><rect x="15" y="7" width="2" height="5"/><path d="M36.18066,18.98828a6.57215,6.57215,0,0,0-.95214-.8125,6.47374,6.47374,0,0,0-1.328-.695C33.9632,16.65674,34,15.82959,34,15V14H6v1a33.08773,33.08773,0,0,0,7.23828,20.625l.30029.375H26.46191l.29981-.375a32.75873,32.75873,0,0,0,3.67462-5.71936,6.496,6.496,0,0,0,5.74432-10.91736ZM25.49707,34H14.50293a30.68972,30.68972,0,0,1-6.5141-18.01465H32.00824A30.68989,30.68989,0,0,1,25.49707,34Zm9.68848-7.91895a4.47921,4.47921,0,0,1-3.85968,1.9051,33.17669,33.17669,0,0,0,2.34637-8.40644,4.43491,4.43491,0,0,1,1.51331,6.50134Z"/></svg>