<?xml version="1.0" encoding="utf-8"?>
<svg version="1.1" id="Layer_1" xmlns="http://www.w3.org/2000/svg" xmlns:xlink="http://www.w3.org/1999/xlink" x="0px" y="0px"
	 viewBox="0 0 40 40" style="enable-background:new 0 0 40 40;" xml:space="preserve">
<path d="M34,34v-9c0-1.7-1.3-3-3-3h-5v-5c0-1.7-1.3-3-3-3v-3c0-1.3-0.8-2.4-2-2.8V4h-2v4.2c-1.2,0.4-2,1.5-2,2.8v3c-1.7,0-3,1.3-3,3
	v5H9c-1.7,0-3,1.3-3,3v9H4v2h2h8h2h8h2h8h2v-2H34z M19,11c0-0.6,0.4-1,1-1s1,0.4,1,1v3h-2V11z M8,34v-9c0-0.6,0.4-1,1-1h5v10H8z
	 M16,34V22v-5c0-0.6,0.4-1,1-1h6c0.6,0,1,0.4,1,1v5v12H16z M26,34V24h5c0.6,0,1,0.4,1,1v9H26z"/>
</svg>
