<?xml version="1.0" encoding="utf-8"?>
<svg version="1.1" id="Слой_3" xmlns="http://www.w3.org/2000/svg" xmlns:xlink="http://www.w3.org/1999/xlink" x="0px" y="0px"
	 viewBox="0 0 32 32" style="enable-background:new 0 0 32 32;" xml:space="preserve">
<path d="M25.5,6C25.8,6,26,6.2,26,6.5v12c0,0.3-0.2,0.5-0.5,0.5H23v4h-4v3h-6v-3H9v-4H6.5C6.2,19,6,18.8,6,18.5v-12
	C6,6.2,6.2,6,6.5,6H25.5 M25.5,4h-19C5.1,4,4,5.1,4,6.5v12C4,19.9,5.1,21,6.5,21H7v2.7C7,24.4,7.6,25,8.3,25H11v1.7
	c0,0.7,0.6,1.3,1.3,1.3h7.4c0.7,0,1.3-0.6,1.3-1.3V25h2.7c0.7,0,1.3-0.6,1.3-1.3V21h0.5c1.4,0,2.5-1.1,2.5-2.5v-12
	C28,5.1,26.9,4,25.5,4z"/>
<polygon points="10.4,6 8.4,6 8.4,11 10.4,11 10.4,6 "/>
<polygon points="14.8,6 12.8,6 12.8,11 14.8,11 14.8,6 "/>
<polygon points="19.2,6 17.2,6 17.2,11 19.2,11 19.2,6 "/>
<polygon points="23.6,6 21.6,6 21.6,11 23.6,11 23.6,6 "/>
</svg>
