<?xml version="1.0" encoding="utf-8"?>
<!-- Generator: Adobe Illustrator 22.0.1, SVG Export Plug-In . SVG Version: 6.00 Build 0)  -->
<svg version="1.1" id="Слой_1" xmlns="http://www.w3.org/2000/svg" xmlns:xlink="http://www.w3.org/1999/xlink" x="0px" y="0px"
	 viewBox="0 0 32 32" style="enable-background:new 0 0 32 32;" xml:space="preserve">
<title>Icons/24/home-internet_zone_24</title>
<desc>Created with Sketch.</desc>
<g id="Symbols">
	<g id="Icons_x2F_24_x2F_home-internet_x5F_zone_x5F_24">
		<rect id="Rectangle" x="15" y="16" width="2" height="12"/>
		<circle id="Oval" cx="16" cy="16" r="2"/>
		<path id="Fill-1" d="M16,4C9.4,4,4,9.4,4,16c0,4.9,3,9.1,7.2,11l0.4-2c-3.3-1.6-5.6-5-5.6-9c0-5.5,4.5-10,10-10s10,4.5,10,10
			c0,3.9-2.3,7.4-5.6,9l0.4,2C25,25.1,28,20.9,28,16C28,9.4,22.6,4,16,4"/>
		<path id="Fill-4" d="M12.3,21.9l0.5-2.2c-1-0.9-1.7-2.2-1.7-3.7c0-2.8,2.2-5,5-5c2.8,0,5,2.2,5,5c0,1.5-0.7,2.8-1.7,3.7l0.5,2.2
			c2-1.2,3.3-3.4,3.3-5.9c0-3.9-3.1-7-7-7c-3.9,0-7,3.1-7,7C9,18.5,10.3,20.7,12.3,21.9"/>
	</g>
</g>
</svg>
