<?xml version="1.0" encoding="utf-8"?>
<!-- Generator: Adobe Illustrator 22.0.1, SVG Export Plug-In . SVG Version: 6.00 Build 0)  -->
<svg version="1.1" id="Слой_1" xmlns="http://www.w3.org/2000/svg" xmlns:xlink="http://www.w3.org/1999/xlink" x="0px" y="0px"
	 viewBox="0 0 32 32" style="enable-background:new 0 0 32 32;" xml:space="preserve">
<title>Icons/24/home-internet_hertz_24</title>
<desc>Created with Sketch.</desc>
<g id="Symbols">
	<g id="Icons_x2F_24_x2F_home-internet_x5F_hertz_x5F_24">
		<path id="Fill-1" d="M6,16.2c0-3.1,1.4-5.8,3.6-7.7L8.3,7C5.7,9.2,4,12.5,4,16.2s1.7,7,4.3,9.2l1.3-1.5C7.4,22.1,6,19.3,6,16.2
			 M23.7,7l-1.3,1.5c2.2,1.8,3.6,4.6,3.6,7.7s-1.4,5.8-3.6,7.7l1.3,1.5c2.6-2.2,4.3-5.5,4.3-9.2C28,12.5,26.3,9.2,23.7,7 M11.5,21.6
			l1.3-1.6c-1.1-0.9-1.8-2.3-1.8-3.8s0.7-2.9,1.8-3.8l-1.3-1.6C10,12.1,9,14.1,9,16.2C9,18.4,10,20.3,11.5,21.6 M21,16.2
			c0,1.5-0.7,2.9-1.8,3.8l1.3,1.6c1.5-1.3,2.5-3.2,2.5-5.4s-1-4.1-2.5-5.4l-1.3,1.6C20.3,13.3,21,14.7,21,16.2 M18,16.2
			c0,1.1-0.9,2-2,2s-2-0.9-2-2s0.9-2,2-2S18,15.1,18,16.2"/>
	</g>
</g>
</svg>
