<?xml version="1.0" encoding="utf-8"?>
<!-- Generator: Adobe Illustrator 23.0.2, SVG Export Plug-In . SVG Version: 6.00 Build 0)  -->
<svg version="1.1" id="Слой_1" xmlns="http://www.w3.org/2000/svg" xmlns:xlink="http://www.w3.org/1999/xlink" x="0px" y="0px"
	 viewBox="0 0 32 32" style="enable-background:new 0 0 32 32;" xml:space="preserve">
<title>icon/icon_MF/newspaper_1_2</title>
<desc>Created with Sketch.</desc>
<g>
	<path d="M16,11H8v6h8V11z M14,15h-4v-2h4V15z"/>
	<rect x="8" y="19" width="13" height="2"/>
	<path d="M27,12h-2V5H4v19c0,1.7,1.3,3,3,3h19c1.7,0,3-1.3,3-3V14v-2H27z M6,24V7h17v5v2v10c0,0.4,0.1,0.7,0.2,1H7
		C6.4,25,6,24.6,6,24z M25,24V14h2v10c0,0.6-0.4,1-1,1S25,24.6,25,24z"/>
</g>
</svg>
