<?xml version="1.0" encoding="utf-8"?>
<!-- Generator: Adobe Illustrator 23.0.3, SVG Export Plug-In . SVG Version: 6.00 Build 0)  -->
<svg version="1.1" id="Слой_1" xmlns="http://www.w3.org/2000/svg" xmlns:xlink="http://www.w3.org/1999/xlink" x="0px" y="0px"
	 viewBox="0 0 40 40" style="enable-background:new 0 0 40 40;" xml:space="preserve">
<path id="Combined-Shape" class="st0" d="M25.2,5.1L26.9,4C30.1,8.5,32,14,32,20c0,6-1.9,11.5-5.1,16l-1.7-1.1
	c3-4.2,4.8-9.4,4.8-14.9C30,14.4,28.2,9.3,25.2,5.1z M19.8,8.9l1.7-1.1c2.5,3.4,4,7.7,4,12.2c0,4.6-1.5,8.8-4,12.2l-1.7-1.1
	c2.3-3.1,3.7-7,3.7-11.1C23.4,15.8,22.1,12,19.8,8.9z M13.6,12.7l1.7-1.1c1.8,2.3,2.8,5.2,2.8,8.4c0,3.1-1,6-2.8,8.3l-1.7-1.1
	c1.5-2,2.5-4.5,2.5-7.2C16.1,17.3,15.2,14.8,13.6,12.7z M8,16.3l1.7-1.1c1.2,1.3,1.9,2.9,1.9,4.8c0,1.9-0.7,3.5-1.9,4.8L8,23.7
	c1-0.9,1.6-2.2,1.6-3.7C9.6,18.5,9,17.2,8,16.3z"/>
</svg>
