<?xml version="1.0" encoding="utf-8"?>
<svg version="1.1" id="Layer_1" xmlns="http://www.w3.org/2000/svg" xmlns:xlink="http://www.w3.org/1999/xlink" x="0px" y="0px"
	 viewBox="0 0 40 40" style="enable-background:new 0 0 40 40;" xml:space="preserve">
<path d="M22.9,17h-5.8l1.8,17h2.2L22.9,17z M24.9,17l-1.8,17h2.1l3.6-17H24.9z M15.1,17h-3.9l3.6,17h2.1L15.1,17z M30.8,16.9
	l-4,19.1H13.2l-4-19.1c-0.8-1-1.2-2.1-1.2-3.4c0-3,2.5-5.5,5.5-5.5c0.2,0,0.3,0,0.5,0c1-2.4,3.3-4,6-4s5,1.6,6,4c0.2,0,0.3,0,0.5,0
	c3,0,5.5,2.5,5.5,5.5C32,14.8,31.6,15.9,30.8,16.9z M29.7,15c0.2-0.5,0.3-1,0.3-1.5c0-1.9-1.6-3.5-3.5-3.5c-0.3,0-0.6,0-0.9,0.1
	l-1.2-0.7C23.9,7.4,22.1,6,20,6s-3.9,1.4-4.4,3.4l-1.2,0.7C14.1,10,13.8,10,13.5,10c-1.9,0-3.5,1.6-3.5,3.5c0,0.5,0.1,1,0.3,1.5
	H29.7z"/>
</svg>
