<?xml version="1.0" encoding="utf-8"?>
<!-- Generator: Adobe Illustrator 23.0.1, SVG Export Plug-In . SVG Version: 6.00 Build 0)  -->
<svg version="1.1" id="Layer_1" xmlns="http://www.w3.org/2000/svg" xmlns:xlink="http://www.w3.org/1999/xlink" x="0px" y="0px"
	 viewBox="0 0 32 32" style="enable-background:new 0 0 32 32;" xml:space="preserve">
<path id="Shape" d="M8,28c-2.2,0-4-1.8-4-4V9h6V4h18v20c0,2.2-1.8,4-4,4H8z M11.5,26H24c1.1,0,2-0.9,2-2V6H12v18
	C12,24.7,11.8,25.4,11.5,26z M10,11H6v13c0,1.1,0.9,2,2,2s2-0.9,2-2V11z M14,8h8v5h-8V8z M16,10v1h4v-1H16z M14,16h10v2H14V16z
	 M14,20h10v2H14V20z"/>
</svg>
