<svg id="Слой_1" data-name="Слой 1" xmlns="http://www.w3.org/2000/svg" viewBox="0 0 40 40"><title>warm_welcome_S</title><path d="M21,12H19V5h2ZM17,7H15v5h2Zm8,0H23v5h2ZM36.82422,27.22754a6.40068,6.40068,0,0,1-6.38788,2.6781A32.75873,32.75873,0,0,1,26.76172,35.625L26.46191,36H13.53857l-.30029-.375A33.08773,33.08773,0,0,1,6,15V14H34v1c0,.82959-.0368,1.65674-.09943,2.48077a6.47374,6.47374,0,0,1,1.328.695,6.49265,6.49265,0,0,1,1.5957,9.05176Zm-4.816-11.24219H7.98883A30.68972,30.68972,0,0,0,14.50293,34H25.49707A30.68989,30.68989,0,0,0,32.00824,15.98535Zm2.734,4.39307a3.60341,3.60341,0,0,0-1.06995-.79871,33.17669,33.17669,0,0,1-2.34637,8.40644,4.49174,4.49174,0,0,0,3.41632-7.60773Zm-14.26172,2.8208-.00006.00091-.39331-.02777-.10419-.00732h-.00049a1.50022,1.50022,0,1,1,1.60059-1.3916l1.99609.13867a3.50044,3.50044,0,1,0-3.73681,3.247v.00006l.497.035.00251.0011A1.99987,1.99987,0,1,1,18.207,27.05078l-1.99512-.13965a3.99991,3.99991,0,0,0,3.71143,4.26953c.09424.00586.1875.00977.28076.00977a4.00048,4.00048,0,0,0,.27637-7.99121Z"/></svg>