<svg viewBox="0 0 40 40" xmlns="http://www.w3.org/2000/svg"><path d="m24.541 5.6743-.584-.6743h-7.9145l-2.6553 3h-5.3872v6.0254l-5 5.5928v3.3818h3v12h28v-12h3v-3.3818zm10.459 15.3257h-3v12h-24v-12h-3v-.6182l5-5.5927v-4.7891h4.2817l2.5108-2.8086.165-.1914h6.0855l11.957 13.3818zm-13.5126 5.0026a1.5 1.5 0 1 1 -1.5-1.5 1.5 1.5 0 0 1 1.5 1.5zm-1.4933-5.5319a6.9544 6.9544 0 0 1 4.95 2.0508l-1.414 1.414a4.9995 4.9995 0 0 0 -7.0713 0l-1.4141-1.414a6.9524 6.9524 0 0 1 4.9494-2.0508zm7.792-1.14-1.414 1.414a9.0114 9.0114 0 0 0 -12.7285 0l-1.4136-1.4141a11.0124 11.0124 0 0 1 15.5561 0z"/></svg>