<?xml version="1.0" encoding="utf-8"?>
<!-- Generator: Adobe Illustrator 22.1.0, SVG Export Plug-In . SVG Version: 6.00 Build 0)  -->
<svg version="1.1" id="Слой_1" xmlns="http://www.w3.org/2000/svg" xmlns:xlink="http://www.w3.org/1999/xlink" x="0px" y="0px"
	 viewBox="0 0 40 40" enable-background="new 0 0 40 40" xml:space="preserve">
<path d="M37.01447,29.1698c0.53741-1.31091,0.81812-2.72131,0.81812-4.1698c0-6.07513-4.92487-11-11-11
	c-0.96552,0-1.914,0.12469-2.82733,0.36694C23.67725,8.58643,18.8858,4,13.02319,4c-6.07513,0-11,4.92487-11,11
	c0,1.44849,0.28064,2.85889,0.81805,4.1698L1.0578,22.8717l2.33258,3.05255l4.51434-1.18536
	C9.46826,25.56232,11.21478,26,13.02319,26c0.97742,0,1.92511-0.1275,2.82727-0.36676C16.17859,31.4137,20.96997,36,26.83258,36
	c1.80835,0,3.55493-0.43768,5.11841-1.26111l4.51434,1.18536l2.33258-3.05255L37.01447,29.1698z M13.02319,24
	c-1.59827,0-3.13348-0.41626-4.48676-1.19617l-0.3559-0.20514l-4.00977,1.05286l-0.77814-1.01831l1.65417-3.43347l-0.198-0.42841
	C4.30731,17.59985,4.02319,16.32098,4.02319,15c0-4.97058,4.02942-9,9-9c4.97052,0,9,4.02942,9,9S17.99371,24,13.02319,24z
	 M35.68494,33.65155l-4.0097-1.05286l-0.35596,0.20514C29.966,33.58374,28.43085,34,26.83258,34c-4.97058,0-9-4.02942-9-9
	c0-0.03491,0.00018-0.06976,0.00055-0.10461c3.24194-1.5788,5.59222-4.7038,6.09137-8.41553
	C24.85034,16.16394,25.82928,16,26.83258,16c4.97052,0,9,4.02942,9,9c0,1.32098-0.28418,2.59985-0.82568,3.77136l-0.198,0.42841
	l1.65417,3.43347L35.68494,33.65155z M8,16h7v2H8V16z M8,12h10v2H8V12z M23,26h6v2h-6V26z M23,22h9v2h-9V22z"/>
</svg>
