<?xml version="1.0" encoding="utf-8"?>
<!-- Generator: Adobe Illustrator 21.1.0, SVG Export Plug-In . SVG Version: 6.00 Build 0)  -->
<svg version="1.1" id="Layer_1" xmlns="http://www.w3.org/2000/svg" xmlns:xlink="http://www.w3.org/1999/xlink" x="0px" y="0px"
	 viewBox="0 0 40 40" style="enable-background:new 0 0 40 40;" xml:space="preserve">
<style type="text/css">
	.st0{fill:#020202;}
</style>
<path id="Therm" class="st0" d="M14.7,25.1c0.9,0.9,0.9,2.3,0,3.3c-0.9,0.9-2.3,0.9-3.3,0c-0.9-0.9-0.9-2.3,0-3.3
	S13.7,24.2,14.7,25.1 M31.9,11.2L18.5,24.7l0.1,0.7c0.6,2,0,4.2-1.5,5.6c-1.2,1.2-2.8,1.7-4.4,1.7c-1.7-0.2-3.1-1-4.3-2.3
	c-1.6-2-1.6-4.9-0.1-7c1.2-1.5,2.9-2.4,4.8-2.4c0.5,0,1,0.1,1.5,0.2l0.7,0.1l2.8-2.8l1.6,1.6l1.6-1.6l-1.6-1.6l1.6-1.6l1.6,1.6
	l1.6-1.6l-1.6-1.6l1.6-1.6l1.6,1.6l1.6-1.6l-1.6-1.6l2.4-2.4C29.5,7,31,7,31.9,7.9c0.5,0.5,0.7,1,0.7,1.6
	C32.6,10.1,32.3,10.7,31.9,11.2 M34.9,9.6c0-1.3-0.5-2.4-1.4-3.3c-1.7-1.7-4.8-1.7-6.6,0L14.4,18.7c-3-0.6-6.2,0.7-8,3.3
	c-2.1,2.9-2,7,0.2,9.8c1.4,1.9,3.6,3,5.9,3.1c0.1,0,0.3,0,0.5,0c2.2,0,4.2-0.8,5.8-2.4c1.9-1.9,2.7-4.5,2.2-7.2l12.5-12.4
	C34.4,11.9,34.9,10.7,34.9,9.6"/>
</svg>
