<?xml version="1.0" encoding="utf-8"?>
<!-- Generator: Adobe Illustrator 22.0.1, SVG Export Plug-In . SVG Version: 6.00 Build 0)  -->
<svg version="1.1" id="Слой_3" xmlns="http://www.w3.org/2000/svg" xmlns:xlink="http://www.w3.org/1999/xlink" x="0px" y="0px"
	 viewBox="0 0 32 32" style="enable-background:new 0 0 32 32;" xml:space="preserve">
<path d="M18,10v0.7c-0.7-0.5-1.5-0.7-2.5-0.7c-2.2,0-4.5,1.6-4.5,6s2.3,6,4.5,6c1.7,0,2.9-0.7,3.7-2c0.8,1.1,2,2,3.8,2
	c3.3,0,5-3,5-6c0-6.6-5.4-12-12-12S4,9.4,4,16s5.4,12,12,12c2.7,0,5.2-0.9,7.4-2.5l-1.2-1.6C20.4,25.3,18.2,26,16,26
	c-5.5,0-10-4.5-10-10S10.5,6,16,6s10,4.5,10,10c0,1.4-0.6,4-3,4c-2.9,0-3-3.8-3-4v-6H18z M15.5,20c-1.6,0-2.5-1.4-2.5-4s0.9-4,2.5-4
	c0.9,0,2.5,0,2.5,4S16.4,20,15.5,20z"/>
</svg>
