<svg viewBox="0 0 40 40" xmlns="http://www.w3.org/2000/svg"><path d="M20 8c2.3467 0 4.5894.7056 6.4827 2H31c2.7614 0 5 2.2386 5 5v10c0 2.7614-2.2386 5-5 5H9c-2.7614 0-5-2.2386-5-5V15c0-2.7614 2.2386-5 5-5h4.5173C15.4106 8.7057 17.6533 8 20 8zm0 2c-2.0337 0-3.9684.6394-5.578 1.809l-.2629.191H9c-1.6569 0-3 1.3431-3 3v10c0 1.6569 1.3431 3 3 3h22c1.6569 0 3-1.3431 3-3V15c0-1.6569-1.3431-3-3-3H25.841l-.263-.191C23.9685 10.6395 22.0338 10 20 10zm0 4c3.3137 0 6 2.6863 6 6s-2.6863 6-6 6-6-2.6863-6-6 2.6863-6 6-6zm0 2c-2.2091 0-4 1.7909-4 4 0 2.2091 1.7909 4 4 4 2.2091 0 4-1.7909 4-4 0-2.2091-1.7909-4-4-4zm10-2c1.1046 0 2 .8954 2 2s-.8954 2-2 2-2-.8954-2-2 .8954-2 2-2z" /></svg>