<svg viewBox="0 0 40 40" xmlns="http://www.w3.org/2000/svg"><path d="M25 4c2.7614 0 5 2.2386 5 5l.0012 5.1003c2.2103.4492 3.891 2.3566 3.9938 4.6742L34 19v1h-4v11c0 2.7614-2.2386 5-5 5H15c-2.7614 0-5-2.2386-5-5V9c0-2.7614 2.2386-5 5-5h10zM14 16c-1.0544 0-1.9182.8159-1.9945 1.8507L12 18v13c0 1.6569 1.3431 3 3 3h10c1.6569 0 3-1.3431 3-3V20H16v-2c0-1.1046-.8954-2-2-2zm6 12c1.1046 0 2 .8954 2 2s-.8954 2-2 2-2-.8954-2-2 .8954-2 2-2zm-2.5352-12.0001a3.9772 3.9772 0 0 1 .5303 1.8005L18 18h13.8293c-.3913-1.107-1.4137-1.9157-2.6349-1.9938L29 16l-11.5352-.0001zM25 6H15c-1.6569 0-3 1.3431-3 3l-.0001 5.5352A3.9816 3.9816 0 0 1 14 14h14V9c0-1.6569-1.3431-3-3-3z" /></svg>