<?xml version="1.0" encoding="utf-8"?>
<!-- Generator: Adobe Illustrator 22.1.0, SVG Export Plug-In . SVG Version: 6.00 Build 0)  -->
<svg version="1.1" id="Layer_1" xmlns="http://www.w3.org/2000/svg" xmlns:xlink="http://www.w3.org/1999/xlink" x="0px" y="0px"
	 viewBox="0 0 40 40" style="enable-background:new 0 0 40 40;" xml:space="preserve">
<title>Books Stack-40</title>
<path d="M11,6v4H5v24h6h2h8V6H11z M11,32H7v-2h4V32z M11,28H7V16h4V28z M11,14H7v-2h4V14z M19,32h-6v-2h6V32z M19,28h-6V12h6V28z
	 M19,10h-6V8h6V10z"/>
<path d="M20.3,12.8L26,34l8.7-2.3l-4.1-15.5L30,14.3l-1-3.9L20.3,12.8z M27.4,31.6l-0.5-2l4.8-1.3l0.5,1.9L27.4,31.6z M31.2,26.4
	l-4.8,1.3L23.8,18l4.8-1.3L31.2,26.4z M23.3,16.1l-0.5-1.9l4.8-1.3l0.5,1.9L23.3,16.1z"/>
</svg>
