<?xml version="1.0" encoding="utf-8"?>
<!-- Generator: Adobe Illustrator 23.0.1, SVG Export Plug-In . SVG Version: 6.00 Build 0)  -->
<svg version="1.1" id="Layer_1" xmlns="http://www.w3.org/2000/svg" xmlns:xlink="http://www.w3.org/1999/xlink" x="0px" y="0px"
	 viewBox="0 0 40 40" style="enable-background:new 0 0 40 40;" xml:space="preserve">
<style type="text/css">
	.st0{fill-rule:evenodd;clip-rule:evenodd;}
</style>
<path id="Shape" class="st0" d="M13,26h17V6H13c-1.7,0-3,1.3-3,3v18C10.8,26.4,11.9,26,13,26z M13,28c-1.7,0-3,1.3-3,3
	c0,1.7,1.3,3,3,3h17v-6H13z M13,36c-2.8,0-5-2.2-5-5V9c0-2.8,2.2-5,5-5h19v32H13z M25,13H15v-2h10V13z"/>
</svg>
