<svg id="ready" xmlns="http://www.w3.org/2000/svg" viewBox="0 0 20 20"><title>Mobile_Internet_16</title><path d="M10,17A7,7,0,1,1,16.06,6.5l.87-.5a8,8,0,1,0,0,8l-.87-.5A7,7,0,0,1,10,17Z"/><polygon points="9 13 9 12 9.5 12 9.5 11 9 11 9 9.5 8 9.5 8 11 6.14 11 7.38 7.15 6.43 6.85 5 11.29 5.46 12 8 12 8 13 9 13"/><polygon points="20 9.5 18.5 9.5 18.5 8 17.5 8 17.5 9.5 16 9.5 16 10.5 17.5 10.5 17.5 12 18.5 12 18.5 10.5 20 10.5 20 9.5"/><path d="M14.13,8.38l.62-.82a3.14,3.14,0,0,0-4,.29,3.07,3.07,0,0,0,2.17,5.24,3.09,3.09,0,0,0,1.85-.61l.2-.16V9.51h-2v1h1v1.26a2.1,2.1,0,0,1-2.48-.32,2.05,2.05,0,0,1,0-2.9A2.1,2.1,0,0,1,14.13,8.38Z"/></svg>