<svg viewBox="0 0 20 20" xmlns="http://www.w3.org/2000/svg"><path d="M12.5 2C13.8807 2 15 3.1193 15 4.5l.0004 2.5501c1.0866.2208 1.9172 1.1463 1.9938 2.2786L17 9.5v.5h-2v5.5c0 1.3807-1.1193 2.5-2.5 2.5h-5C6.1193 18 5 16.8807 5 15.5v-11C5 3.1193 6.1193 2 7.5 2h5zM7 8c-.5128 0-.9355.386-.9933.8834L6 9v6.5c0 .8284.6716 1.5 1.5 1.5h5c.8284 0 1.5-.6716 1.5-1.5V10H8V9c0-.5523-.4477-1-1-1zm3 6c.5523 0 1 .4477 1 1s-.4477 1-1 1-1-.4477-1-1 .4477-1 1-1zM8.7324 8c.1467.2536.2394.5424.2621.8507L9 9h6.9146c-.19-.5378-.678-.9348-1.2657-.9927L14.5 8H8.7324zM12.5 3h-5C6.6716 3 6 3.6716 6 4.5v2.7676A1.9908 1.9908 0 0 1 7 7h7V4.5c0-.8284-.6716-1.5-1.5-1.5z"/></svg>