<svg viewBox="0 0 20 20" xmlns="http://www.w3.org/2000/svg"><path d="M10 4c1.1486 0 2.245.3536 3.1627.9998L15.5 5C16.8807 5 18 6.1193 18 7.5v5c0 1.3807-1.1193 2.5-2.5 2.5h-11C3.1193 15 2 13.8807 2 12.5v-5C2 6.1193 3.1193 5 4.5 5l2.3373-.0002C7.755 4.3536 8.8513 4 10 4zm0 1c-.9882 0-1.9268.3188-2.6999.8995l-.1334.1003h-.1669L4.5 6C3.6716 6 3 6.6716 3 7.5v5c0 .8284.6716 1.5 1.5 1.5h11c.8284 0 1.5-.6716 1.5-1.5v-5c0-.8284-.6716-1.5-1.5-1.5l-2.6667-.0002-.1334-.1003C11.9268 5.3188 10.9882 5 10 5zm0 2c1.6569 0 3 1.3431 3 3s-1.3431 3-3 3-3-1.3431-3-3 1.3431-3 3-3zm0 1c-1.1046 0-2 .8954-2 2s.8954 2 2 2 2-.8954 2-2-.8954-2-2-2zm5-1c.5523 0 1 .4477 1 1s-.4477 1-1 1-1-.4477-1-1 .4477-1 1-1z" /></svg>