<?xml version="1.0" encoding="utf-8"?>
<!-- Generator: Adobe Illustrator 23.0.4, SVG Export Plug-In . SVG Version: 6.00 Build 0)  -->
<svg version="1.1" id="Layer_1" xmlns="http://www.w3.org/2000/svg" xmlns:xlink="http://www.w3.org/1999/xlink" x="0px" y="0px"
	 viewBox="0 0 32 32" style="enable-background:new 0 0 32 32;" xml:space="preserve">
<style type="text/css">
	.st0{fill-rule:evenodd;clip-rule:evenodd;}
</style>
<title>Icons/24/Sim-card_24</title>
<desc>Created with Sketch.</desc>
<path class="st0" d="M8.9,12.7v12.1c0,0.7,0.5,1.2,1.2,1.2h11.7c0.7,0,1.2-0.5,1.2-1.2V7.2c0-0.7-0.5-1.2-1.2-1.2H15L8.9,12.7z
	 M21.8,28H10.2C8.4,28,7,26.6,7,24.8V12l7.1-8h7.7C23.6,4,25,5.4,25,7.2v17.6C25,26.6,23.6,28,21.8,28z M13,22h6v-6h-6V22z M11,24
	V14h10v10H11z"/>
</svg>
