<?xml version="1.0" encoding="utf-8"?>
<!-- Generator: Adobe Illustrator 23.0.1, SVG Export Plug-In . SVG Version: 6.00 Build 0)  -->
<svg version="1.1" id="Ready" xmlns="http://www.w3.org/2000/svg" xmlns:xlink="http://www.w3.org/1999/xlink" x="0px" y="0px"
	 viewBox="0 0 32 32" style="enable-background:new 0 0 32 32;" xml:space="preserve">
<title>Mobile_Internet_24</title>
<path d="M4,16c0,6.6,5.4,12,12,12c4.3,0,8.2-2.3,10.4-6l-1.7-1c-2.8,4.8-8.9,6.4-13.7,3.7S4.6,15.8,7.3,11S16.2,4.6,21,7.3
	c1.5,0.9,2.8,2.1,3.7,3.7l1.7-1C23,4.3,15.7,2.3,10,5.7C6.3,7.8,4,11.7,4,16z M28,17h2v-2h-2v-2h-2v2h-2v2h2v2h2V17z M14,20v-1h1v-2
	h-1v-2h-2v2h-1.6l1.7-5.4L10.1,11L8,17.8L9,19h3v1H14z M21.4,13.6l1.2-1.6c-1.8-1.3-4.4-1.2-6,0.4c-1.8,1.8-1.7,4.8,0.2,6.5
	c1.6,1.5,4,1.7,5.8,0.4L23,19v-4h-3v2h1v1c-1,0.5-2.2,0.3-3-0.5c-1-1-1-2.6,0-3.6c0,0,0,0,0,0C18.9,12.9,20.4,12.8,21.4,13.6z"/>
</svg>
