<?xml version="1.0" encoding="utf-8"?>
<!-- Generator: Adobe Illustrator 22.0.1, SVG Export Plug-In . SVG Version: 6.00 Build 0)  -->
<svg version="1.1" id="Слой_1" xmlns="http://www.w3.org/2000/svg" xmlns:xlink="http://www.w3.org/1999/xlink" x="0px" y="0px"
	 viewBox="0 0 60 32" style="enable-background:new 0 0 60 32;" xml:space="preserve">
<title>Icons/24/Social+messenger_slider_24</title>
<desc>Created with Sketch.</desc>
<g id="Icons_x2F_24_x2F_Social_x2B_messenger_x5F_slider_x5F_24">
	<g id="Mask">
		<path id="path-1_1_" d="M29,13h-2v2h-2v2h2v2h2v-2h2v-2h-2V13z M16.5,13C19,13,21,11,21,8.5S19,4,16.5,4S12,6,12,8.5
			c0,0.7,0.2,1.3,0.4,1.9L9,12.7c-1.2-1.4-3.1-2-4.8-1.5c-1.8,0.5-3,2.1-3.2,3.9s0.8,3.6,2.5,4.4s3.6,0.5,5-0.7l4,2.7
			c-0.3,0.6-0.5,1.2-0.5,1.9c0,2.5,2,4.5,4.5,4.5s4.5-2,4.5-4.5S19,19,16.5,19c-1,0-2,0.4-2.8,1l-4-2.8c0.4-0.9,0.5-1.8,0.2-2.8
			l3.8-2.4C14.5,12.6,15.5,13,16.5,13z M5.5,18C4.1,18,3,16.9,3,15.5S4.1,13,5.5,13S8,14.1,8,15.5S6.9,18,5.5,18z M16.5,21
			c1.4,0,2.5,1.1,2.5,2.5S17.9,26,16.5,26S14,24.9,14,23.5S15.1,21,16.5,21z M16.5,6C17.9,6,19,7.1,19,8.5S17.9,11,16.5,11
			S14,9.9,14,8.5S15.1,6,16.5,6z M43,17h6v2h-6V17z M43,13h8v2h-8V13z M36.4,28l5-1.4c5.1,2.7,11.5,1.4,15.1-3.2
			C60,18.8,59.8,12.3,55.9,8S45.6,2.7,40.7,5.8s-7,9.2-4.8,14.6L34,24.5L36.4,28z M37.9,20c-2-4.5-0.4-9.8,3.8-12.4
			s9.6-1.9,12.9,1.8c3.3,3.7,3.4,9.2,0.3,13c-3.1,3.8-8.5,4.8-12.8,2.3l-0.3-0.1L37,26l-1-1.5l2-4.2L37.9,20z"/>
	</g>
</g>
</svg>
