<?xml version="1.0" encoding="utf-8"?>
<!-- Generator: Adobe Illustrator 22.1.0, SVG Export Plug-In . SVG Version: 6.00 Build 0)  -->
<svg version="1.1" id="Layer_1" xmlns="http://www.w3.org/2000/svg" xmlns:xlink="http://www.w3.org/1999/xlink" x="0px" y="0px"
	 viewBox="0 0 32 32" style="enable-background:new 0 0 32 32;" xml:space="preserve">
    <g id="Page-1" stroke="none" stroke-width="1" fill="none" fill-rule="evenodd">
        <g id="unlim-bl" fill="#333333" fill-rule="nonzero">
<path class="st0" d="M19.8,16c-0.7,1-2.8,3.5-5.5,3.5c-2,0.1-3.6-1.5-3.7-3.5c0.1-2,1.7-3.5,3.7-3.5C17.1,12.5,19.1,15,19.8,16z
	 M20.8,17.4c-1.1,1.4-3.4,3.7-6.5,3.7C11.5,21.2,9.1,18.9,9,16c0.1-2.9,2.5-5.2,5.4-5.1c3.1,0,5.4,2.3,6.5,3.7c1-1.3,3.2-3.4,6-3.6
	l0,0C25,6.8,20.8,4,16,4C9.4,4,4,9.4,4,16s5.4,12,12,12c4.8,0,9-2.8,10.9-6.9l0,0C24,20.8,21.9,18.7,20.8,17.4z M27.5,12.6
	L27.5,12.6c-0.1-0.1-0.2-0.1-0.2-0.1c-2.7,0-4.7,2.5-5.5,3.5c0.7,1,2.8,3.5,5.5,3.5h0.2c0.3-1.1,0.5-2.3,0.5-3.5
	S27.8,13.7,27.5,12.6z"/>
	      </g>
    </g>
</svg>
