<?xml version="1.0" encoding="UTF-8"?>
<svg viewBox="0 0 32 32" version="1.1" xmlns="http://www.w3.org/2000/svg" xmlns:xlink="http://www.w3.org/1999/xlink">
    <!-- Generator: Sketch 51.3 (57544) - http://www.bohemiancoding.com/sketch -->
    <title>logo_square/24/apple-music</title>
    <desc>Created with Sketch.</desc>
    <defs>
        <linearGradient x1="13.0817047%" y1="0%" x2="100%" y2="100%" id="linearGradient-1">
            <stop stop-color="#9C3843" offset="0%"></stop>
            <stop stop-color="#F55981" offset="24.7116574%"></stop>
            <stop stop-color="#B372C9" offset="50.3161127%"></stop>
            <stop stop-color="#529DF8" offset="76.5008333%"></stop>
            <stop stop-color="#00BFFF" offset="100%"></stop>
        </linearGradient>
    </defs>
    <g id="logo_square/24/apple-music" stroke="none" stroke-width="1" fill="none" fill-rule="evenodd">
        <path d="M21.3899359,8.00288778 C21.3309598,8.00756112 20.8079096,8.0972892 20.7460331,8.10943988 L13.5142114,9.5207879 L13.5122778,9.5207879 C13.3237477,9.56004393 13.175824,9.62360133 13.0617391,9.71613342 C12.9234837,9.82829352 12.8471049,9.98625234 12.8181002,10.1703819 C12.8113325,10.2096379 12.8016643,10.28815 12.8016643,10.4059181 L12.8016643,19.1525371 C12.8016643,19.3562946 12.7852283,19.5591175 12.6421388,19.7282923 C12.4990493,19.8974671 12.3211542,19.9488739 12.1142545,19.9890646 C11.9566627,20.0189739 11.8000376,20.0507526 11.641479,20.0815967 C11.0449504,20.1974954 10.6562883,20.2769422 10.3043654,20.4077956 C9.9679117,20.5349104 9.7155714,20.6956732 9.51447262,20.8994308 C9.11710916,21.3022725 8.95468322,21.8481183 9.01075884,22.3603162 C9.05813307,22.7977406 9.26213232,23.215537 9.61018791,23.5249119 C9.84609225,23.7342775 10.1409727,23.893171 10.4880614,23.960467 C10.8486857,24.0305671 11.2325137,24.0062657 11.7932699,23.8969096 C12.0920176,23.8380256 12.3714289,23.7473628 12.6382715,23.5959467 C12.9012469,23.4445305 13.127483,23.2454463 13.3034444,23.0005634 C13.4803727,22.7547459 13.5944576,22.4827576 13.6582678,22.1939453 C13.7230448,21.8948517 13.7385139,21.6303408 13.7385139,21.3331165 L13.7385139,13.7389426 C13.7385139,13.3323622 13.8574329,13.2248754 14.1967871,13.1454287 C14.1967871,13.1454287 20.2075137,11.9742902 20.486925,11.9210142 C20.8794544,11.8481101 21.0631504,11.9555969 21.0631504,12.3528306 L21.0631504,17.5355622 C21.0631504,17.7411891 21.0602499,17.9458813 20.9161936,18.1150561 C20.7731041,18.2842309 20.5961758,18.3356377 20.3883093,18.376763 C20.2316843,18.4066724 20.0740924,18.4375164 19.9165006,18.4674258 C19.3190052,18.5842592 18.9313099,18.6627713 18.5784202,18.7954941 C18.2419665,18.9216742 17.9896262,19.082437 17.7894942,19.2852599 C17.3911639,19.6890363 17.2152025,20.2358168 17.2712781,20.7480146 C17.3186523,21.185439 17.5361871,21.6032354 17.8852095,21.9126104 C18.1211138,22.1210413 18.4150274,22.2761961 18.763083,22.3434922 C19.1237073,22.4135922 19.5065684,22.3892909 20.0673247,22.2790001 C20.3660724,22.2210507 20.6454837,22.1341266 20.9123263,21.9827105 C21.1762684,21.832229 21.4015378,21.6312755 21.578466,21.3873272 C21.7544274,21.1424443 21.8694792,20.8704561 21.9323225,20.5807091 C21.9970995,20.2825502 22,20.0143006 22,19.7161416 L22,8.62070304 C22,8.21786132 21.7805316,7.97017441 21.3899359,8.00288778" id="Fill-6" fill="url(#linearGradient-1)"></path>
        <circle id="Oval-2-Copy-2" stroke="#D8D8D8" cx="16" cy="16" r="11.5"></circle>
    </g>
</svg>