<?xml version="1.0" encoding="UTF-8"?>
<svg viewBox="0 0 32 32" version="1.1" xmlns="http://www.w3.org/2000/svg" xmlns:xlink="http://www.w3.org/1999/xlink">
    <g id="Logo-bubble/24/Elena" stroke="none" stroke-width="1" fill="none" fill-rule="evenodd">
        <g id="Group-12" transform="translate(4.000000, 4.000000)">
            <circle id="Oval" fill="#00B956" cx="12" cy="12" r="12"></circle>
            <g id="Group" transform="translate(4.999745, 4.311360)">
                <path d="M2.00184091,10.8138756 C1.66552273,10.5500533 1.17393182,10.6029422 0.904431818,10.9317867 C0.634613636,11.2609422 0.688386364,11.7409867 1.02502273,12.00512 C1.36102273,12.2689422 1.85261364,12.2160533 2.12243182,11.8872089 C2.39256818,11.5583644 2.33847727,11.0780089 2.00184091,10.8138756" id="Fill-1" fill="#731982"></path>
                <path d="M3.10023636,12.1524933 C2.76391818,11.88836 2.27232727,11.9412489 2.00282727,12.2700933 C1.73269091,12.5992489 1.78678182,13.0792933 2.12341818,13.3434267 C2.45941818,13.6072489 2.95100909,13.5546711 3.22082727,13.2255156 C3.49064545,12.8966711 3.43687273,12.4163156 3.10023636,12.1524933" id="Fill-3" fill="#731982"></path>
                <path d="M4.68182273,12.91568 C4.34518636,12.6518578 3.85391364,12.7047467 3.58409545,13.0335911 C3.31427727,13.3627467 3.36836818,13.8427911 3.70468636,14.1069244 C4.04100455,14.3707467 4.53227727,14.3178578 4.80241364,13.9890133 C5.07223182,13.6601689 5.01814091,13.1798133 4.68182273,12.91568" id="Fill-5" fill="#FFFFFF"></path>
                <path d="M5.16034732,14.4443953 L5.4231887,13.4792966 C5.92564905,13.6157942 6.4543175,13.68864 7,13.68864 C10.3137085,13.68864 13,11.0023485 13,7.68864 C13,4.3749315 10.3137085,1.68864 7,1.68864 C3.6862915,1.68864 1,4.3749315 1,7.68864 C1,8.55793849 1.18486827,9.38405868 1.51743472,10.1298305 L0.60366681,10.5366798 C0.215677048,9.66661682 0,8.70281545 0,7.68864 C0,3.82264675 3.13400675,0.68864 7,0.68864 C10.8659932,0.68864 14,3.82264675 14,7.68864 C14,11.5546332 10.8659932,14.68864 7,14.68864 C6.36335611,14.68864 5.74656285,14.6036494 5.16034732,14.4443953 Z" id="Path" fill="#FFFFFF"></path>
                <path d="M8.73803636,5.81936 L8.73803636,5.01047111 L5.18203636,5.01047111 L5.18203636,10.5986489 L8.73803636,10.5986489 L8.73803636,9.79007111 L6.00930909,9.79007111 L6.00930909,8.06713778 C6.37203636,8.06620444 7.06185455,8.06527111 8.38644545,8.06527111 L8.38644545,7.25638222 C7.06980909,7.25638222 6.37712727,7.25731556 6.00930909,7.25824889 L6.00930909,5.81936 L8.73803636,5.81936 Z" id="Fill-10" fill="#FEFEFE"></path>
            </g>
        </g>
    </g>
</svg>