<?xml version="1.0" encoding="utf-8"?>
<!-- Generator: Adobe Illustrator 22.1.0, SVG Export Plug-In . SVG Version: 6.00 Build 0)  -->
<svg version="1.1" id="Layer_1" xmlns="http://www.w3.org/2000/svg" xmlns:xlink="http://www.w3.org/1999/xlink" x="0px" y="0px"
	 viewBox="0 0 40 40" style="enable-background:new 0 0 40 40;" xml:space="preserve">
<g id="Group">
	<path id="Combined-Shape" d="M29.7,28c-0.3,0.6-1,1-1.7,1c-1.1,0-2-0.9-2-2c0-0.7,0.4-1.4,1-1.7v-3.8h2v3.8
		c0.3,0.2,0.6,0.4,0.7,0.7H32v2H29.7z M29,17v1.1c4.2,0.5,7.5,4.1,7.5,8.4c0,4.7-3.8,8.5-8.5,8.5c-3.4,0-6.4-2.1-7.7-5H5v-2h2V17H6
		v-6h2V7h2h16h2v4h2v2h-2h-2H10H8v2h15v2H9v11h10.6c-0.1-0.5-0.1-1-0.1-1.5c0-4.4,3.3-7.9,7.5-8.4V17h-2v-2h6v2H29z M10,11h16V9H10
		V11z M11,18h2v3h-2V18z M15,18h2v3h-2V18z M19,18h2v3h-2V18z M11,23h2v3h-2V23z M15,23h2v3h-2V23z M28,33c3.6,0,6.5-2.9,6.5-6.5
		S31.6,20,28,20s-6.5,2.9-6.5,6.5S24.4,33,28,33z"/>
</g>
</svg>
