<?xml version="1.0" encoding="utf-8"?>
<svg version="1.1" xmlns="http://www.w3.org/2000/svg" xmlns:xlink="http://www.w3.org/1999/xlink" x="0px" y="0px"
	 viewBox="0 0 40 40" style="enable-background:new 0 0 40 40;" xml:space="preserve">
<g transform="translate(9.000000, 4.000000)">
	<path d="M11,22c3.3,0,6-2.7,6-6V6c0-3.3-2.7-6-6-6S5,2.7,5,6v10C5,19.3,7.7,22,11,22z M7,6c0-2.2,1.8-4,4-4s4,1.8,4,4
		v10c0,2.2-1.8,4-4,4s-4-1.8-4-4V6z M12,26.9V30h4v2H6v-2h5h-1v-3C3.1,26.4,0,20.5,0,15h2c0,4.8,2.8,10,9,10l0,0c6.2,0,9-4.9,9-9.8
		h2C22,20.6,18.9,26.4,12,26.9L12,26.9z"/>
</g>
</svg>
