<?xml version="1.0" encoding="utf-8"?>
<svg version="1.1" id="Слой_1" xmlns="http://www.w3.org/2000/svg" xmlns:xlink="http://www.w3.org/1999/xlink" x="0px" y="0px"
	 viewBox="0 0 40 40" style="enable-background:new 0 0 40 40;" xml:space="preserve">
<path d="M31.5,7.1c-3.6-1.9-7.5-3-11.6-3.1c-3.9,0.1-7.8,1-11.3,2.8L8,7.1V20c0,5.5,2.5,10.6,6.7,14l2.4,1.9h5.7l2.4-1.9
	c4.3-3.4,6.7-8.6,6.7-14V7.4L31.5,7.1z M30,20c0,4.9-2.2,9.5-6,12.5L22.1,34h-4.3L16,32.5c-3.8-3-6-7.6-6-12.5V8.4
	c3.1-1.5,6.4-2.3,9.9-2.4c3.5,0.1,7,1,10.1,2.6V20z M17,19h-2v2h2v2h-2v2h2v3h2v-3h6v-2h-6v-2h3c2.8,0,5-2.2,5-5s-2.2-5-5-5h-5V19z
	 M19,13h3c1.7,0,3,1.3,3,3s-1.3,3-3,3h-3V13z"/>
</svg>
