<svg viewBox="0 0 32 32" xmlns="http://www.w3.org/2000/svg"><path d="M15 18.6178a1.4964 1.4964 0 0 1-.5-1.1178c0-.828.672-1.5 1.5-1.5s1.5.672 1.5 1.5c0 .444-.1932.843-.5 1.1178V20h2v-1.1087c0-.754.2132-1.4927.6149-2.1309.1543-.2452.325-.4646.513-.6572C21.2898 14.9122 22 13.383 22 11.9062 22 8.6219 19.352 6 16.0323 6 12.6973 6 10 8.6368 10 11.9063c0 1.5043.6968 3.0104 1.8668 4.1915.1.1008.195.2098.2855.3267.5471.6826.8477 1.5506.8477 2.4477V20h2v-1.3822zm6.3074-.792A2 2 0 0 0 21 18.8914V22H11v-3.1278c0-.4455-.1476-.8718-.419-1.2104a1.6734 1.6734 0 0 0-.135-.1565C8.9241 15.9692 8 13.9717 8 11.9063 8 7.522 11.6028 4 16.0323 4 20.4522 4 24 7.5127 24 11.9063c0 2.037-.935 4.0506-2.4407 5.5936-.0863.0885-.1705.1968-.2519.326zM11 25v-2h10v2H11zm2 3v-2h6v2h-6zm2.2442-12.641L13.7767 14c.5859-.6327 1.3778-.9866 2.2072-1 .8629-.0138 1.6946.3419 2.304 1l-1.4675 1.3588c-.2234-.2412-.5099-.3638-.8043-.359-.2833.0045-.5568.1267-.7719.359zm-1.5444-2.318l-1.4675-1.3589c1.0042-1.0846 2.3563-1.6787 3.7653-1.6821 1.4173-.0034 2.7794.591 3.7897 1.6821l-1.4676 1.3588c-.631-.6814-1.4593-1.043-2.3173-1.041-.8529.0022-1.6753.3635-2.3026 1.041z"/></svg>