<svg id="Слой_1" data-name="Слой 1" xmlns="http://www.w3.org/2000/svg" viewBox="0 0 40 40"><title>Общайся Copy 33</title><path d="M26,11.2016,6,15.7471V14H4V25H6V23.2524l2.0747.4716v.7545a6.6447,6.6447,0,0,0,6.6372,6.6367h1.0488a5.5966,5.5966,0,0,0,5.46-4.4032L26,27.7983V30h2V9H26ZM15.7607,29.1152H14.7119a4.6421,4.6421,0,0,1-4.6372-4.6367v-.3l9.1954,2.09A3.5931,3.5931,0,0,1,15.7607,29.1152ZM6,21.2021V17.7983l20-4.5454V25.7471ZM36,19v2H31V19Zm-4.5264-1.9946-.9472-1.7608,4.1806-2.25.9473,1.7608Zm0,6.1137,4.1807,2.25-.9473,1.7618-4.1806-2.25Z"/></svg>