<svg viewBox="0 0 40 40" xmlns="http://www.w3.org/2000/svg"><path d="M18.5 23.5c0-.828.672-1.5 1.5-1.5s1.5.672 1.5 1.5c0 .444-.1932.843-.5 1.1178V28h3v-2.0286c0-1.1993.4079-2.363 1.1566-3.2999.594-.7431 1.0656-1.2893 1.4255-1.6475 1.6856-1.6776 2.6452-3.9257 2.6452-6.3235 0-4.9788-4.1268-9.023-9.2273-9.023-5.1005 0-9.2273 4.0442-9.2273 9.023 0 2.3737.9403 4.601 2.5958 6.274.3653.3691.8505.9315 1.4648 1.6954A5.2857 5.2857 0 0 1 16 25.9824V28h3v-3.3822a1.4964 1.4964 0 0 1-.5-1.1178zm-6.5531-1.1188c-2.0214-2.0426-3.1742-4.7733-3.1742-7.6807 0-6.0925 5.0311-11.023 11.2273-11.023 6.1962 0 11.2273 4.9305 11.2273 11.023 0 2.937-1.1764 5.693-3.2344 7.741-.2952.2938-.7233.7897-1.274 1.4786A3.2857 3.2857 0 0 0 26 25.9714V30H14v-4.0176c0-.749-.2559-1.4755-.7253-2.0591-.5749-.715-1.0206-1.2317-1.3278-1.542zM14 33v-2h12v2H14zm3 3v-2h6v2h-6zm-3.1146-18.4989l-1.4032-1.425c2.0187-1.9878 4.7135-3.067 7.5146-3.076 2.825-.009 5.5485 1.0713 7.5845 3.076l-1.4033 1.425c-1.6552-1.6297-3.8703-2.5084-6.1748-2.501-2.2848.0072-4.4766.885-6.1178 2.501zm4.4813 4.1407l-1.4032-1.425c.819-.8065 1.9186-1.2345 3.0523-1.2166 1.087.0171 2.131.4432 2.9165 1.2165l-1.4032 1.4251c-.4143-.4078-.9654-.6327-1.5449-.6419-.6046-.0095-1.1855.2166-1.6175.642zm-2.2383-2.0673l-1.4032-1.425c1.4189-1.3971 3.3121-2.1517 5.276-2.1495 1.9578.0023 3.8439.7567 5.2584 2.1494l-1.4032 1.4251C22.82 18.5542 21.4387 18.0017 19.9989 18c-1.4443-.0016-2.831.551-3.8705 1.5745z"/></svg>