<?xml version="1.0" encoding="utf-8"?>
<!-- Generator: Adobe Illustrator 23.0.2, SVG Export Plug-In . SVG Version: 6.00 Build 0)  -->
<svg version="1.1"  xmlns="http://www.w3.org/2000/svg" xmlns:xlink="http://www.w3.org/1999/xlink" viewBox="0 0 32 32" >
<style type="text/css">
	.st0{fill:url(#SVGID_1_);}
	.st1{fill:url(#SVGID_2_);}
	.st2{fill:url(#SVGID_3_);}
	.st3{fill:url(#SVGID_4_);}
	.st4{fill:url(#SVGID_5_);}
	.st5{opacity:0.8;fill:#74EBEB;}
	.st6{fill:#00AFDC;}
	.st7{fill:#FFFFFF;}
</style>
<linearGradient id="SVGID_1_" gradientUnits="userSpaceOnUse" x1="3.9754016" y1="16.4866962" x2="34.2828827" y2="-13.8207846">
	<stop  offset="0" style="stop-color:#00AFDC"/>
	<stop  offset="1" style="stop-color:#01DBDB"/>
</linearGradient>
<path class="st0" d="M15.0906982,9.0623169c2.3067017-0.0042725,4.1727295-1.8703003,4.1768188-4.1768188
	c-0.0002441-0.1495972-0.0319214-0.2903442-0.0479126-0.43573C18.1936035,4.1642456,17.1170044,4,16,4
	c-1.0646362,0-2.0914307,0.1522217-3.0742798,0.4124146c0.0269775,0.1538086,0.0427246,0.3114624,0.0427246,0.4730835
	c-0.0004883,1.539856-1.2483521,2.7884521-2.788208,2.7884521c-0.7629395,0-1.4528198-0.3076782-1.9562378-0.803894
	C7.7945557,7.236145,7.3955688,7.6348877,7.0216064,8.057312c0.727356,0.6165771,1.656311,1.0031128,2.6855469,1.0050049H15.0906982
	z"/>
<linearGradient id="SVGID_2_" gradientUnits="userSpaceOnUse" x1="7.6565981" y1="34.6756439" x2="36.2350922" y2="6.0971522">
	<stop  offset="0" style="stop-color:#00AFDC"/>
	<stop  offset="1" style="stop-color:#01DBDB"/>
</linearGradient>
<path class="st1" d="M19.932312,22.9349976h-5.3840332c-2.1384888,0.0033569-3.8782349,1.6129761-4.1264648,3.6849365
	c0.5847778,0.3078003,1.1981201,0.5675049,1.8349609,0.7766113c-0.0100098-0.0944824-0.0240479-0.1879272-0.0240479-0.2851562
	c0.0004883-1.5402832,1.2483521-2.788208,2.7886353-2.7886963c1.5403442,0,2.788269,1.2484131,2.7886963,2.7886963
	c0,0.2631226-0.0450439,0.5140381-0.1137085,0.7550049c2.2417603-0.3180542,4.2880249-1.2424316,5.9522095-2.6206665
	C22.9613037,23.8817139,21.5646973,22.937561,19.932312,22.9349976z"/>
<linearGradient id="SVGID_3_" gradientUnits="userSpaceOnUse" x1="11.7660875" y1="30.2685432" x2="22.1202431" y2="19.9143867">
	<stop  offset="0" style="stop-color:#00AFDC"/>
	<stop  offset="1" style="stop-color:#01DBDB"/>
</linearGradient>
<path class="st2" d="M16.8892822,27.9550781c0.1172485-0.2581787,0.1883545-0.541687,0.1888428-0.843689
	c-0.0016479-1.1364746-0.9204712-2.0551147-2.0567627-2.0567627c-1.1364746,0.0016479-2.0550537,0.9202881-2.0567017,2.0567627
	c0.0002441,0.1747437,0.0268555,0.3422241,0.0686035,0.5038452C13.9837646,27.8574219,14.9740601,28,16,28"/>
<linearGradient id="SVGID_4_" gradientUnits="userSpaceOnUse" x1="7.6176286" y1="8.9783382" x2="17.5547104" y2="-0.9587442">
	<stop  offset="0" style="stop-color:#00AFDC"/>
	<stop  offset="1" style="stop-color:#01DBDB"/>
</linearGradient>
<path class="st3" d="M12.2367554,4.885498c-0.0001221-0.0906982-0.0189209-0.1760254-0.0306396-0.2634888
	c-1.2349243,0.4116821-2.3760376,1.0209351-3.3956909,1.7865601c0.3641968,0.3275757,0.8410034,0.5326538,1.369812,0.5334473
	C11.3157959,6.9403687,12.2351074,6.0217285,12.2367554,4.885498z"/>
<linearGradient id="SVGID_5_" gradientUnits="userSpaceOnUse" x1="-4.7576499" y1="36.8102303" x2="60.2544708" y2="-28.201889">
	<stop  offset="0" style="stop-color:#00AFDC"/>
	<stop  offset="1" style="stop-color:#01DBDB"/>
</linearGradient>
<path class="st4" d="M27.3195801,12.0465088c-1.1973877-3.427124-3.8995972-6.1384888-7.3203735-7.3493652v0.050293
	c0,0.0166016-0.0026245,0.0325928-0.0050049,0.0487671c0.0007324,0.0300293,0.0045166,0.059082,0.0045166,0.0892944
	c0,2.7108154-2.1972046,4.90802-4.90802,4.9085083L9.7071533,9.7935181c-1.2077637,0-2.2991333-0.4529419-3.1541138-1.1763306
	c-0.8007202,1.0231323-1.4356079,2.1784668-1.8726196,3.4293213C4.2473755,13.2860718,4,14.6126709,4,16
	s0.2473755,2.7139282,0.6804199,3.9534912c0.9173584,2.6256714,2.7173462,4.8294678,5.0493774,6.263855
	c0.4212036-2.2828369,2.4135742-4.0142822,4.8184814-4.0142822h5.3840332c1.774353,0,3.3149414,0.9505615,4.177063,2.3615112
	v-4.0608521c0-0.2023926,0.1633301-0.3659668,0.3652344-0.3659668c0.2021484,0,0.3657227,0.1635742,0.3657227,0.3659668v3.5908813
	c1.0873413-1.1868896,1.9371338-2.5895386,2.479248-4.1411133C27.7526245,18.7139282,28,17.3873291,28,16
	S27.7526245,13.2860718,27.3195801,12.0465088z M25.196106,18.7660522c0,0.4095459-0.3319092,0.7409668-0.7407837,0.7409668
	c-0.4093018,0-0.7414551-0.3314209-0.7414551-0.7409668c0-0.4090576,0.3321533-0.7409668,0.7414551-0.7409668
	C24.8641968,18.0250854,25.196106,18.3569946,25.196106,18.7660522z M22.0340576,6.9124756
	c0.4095459,0,0.7414551,0.3317261,0.7414551,0.7407227c0,0.4093018-0.3319092,0.7414551-0.7414551,0.7414551
	c-0.4086304,0-0.7407837-0.3321533-0.7407837-0.7414551C21.2932739,7.2442017,21.6254272,6.9124756,22.0340576,6.9124756z
	 M17.5114746,20.9071045l-5.3840332-0.0007324c-1.0813599,0-2.0721436-0.3604126-2.8831787-0.9528809
	c-1.2220459-0.8926392-2.0249023-2.3256836-2.0253296-3.954895c0.0004272-1.6276245,0.8015137-3.059082,2.0212402-3.9520874
	c0.8117676-0.5943604,1.803894-0.9562988,2.8872681-0.9564819h5.3840332
	c1.0831299,0.0001831,2.0752563,0.3621216,2.8870239,0.9564819c0.5178833,0.3791504,0.9537354,0.8553467,1.2896118,1.4047241
	v-1.4047241V9.3904419c0-0.2019043,0.1635742-0.3654785,0.3661499-0.3654785c0.2012329,0,0.3652954,0.1635742,0.3652954,0.3654785
	v2.6560669v3.8134766c0,0.0161133-0.0071411,0.0297852-0.0091553,0.0453491
	c0.0006104,0.0317993,0.0093994,0.0613403,0.0093994,0.0932617h-0.0004883c0,1.6294556-0.8025513,3.0621948-2.024292,3.954895
	C19.5839233,20.5461426,18.5930176,20.9067993,17.5114746,20.9071045z"/>
<path class="st5" d="M22.4195557,12.0465088v3.8134766c0,0.0161133-0.0071411,0.0297852-0.0091553,0.0453491
	c0.0006104,0.0317993,0.0093994,0.0613403,0.0093994,0.0932617h-0.0004883c0,1.6294556-0.8025513,3.0621948-2.024292,3.954895
	h6.9245605C27.7526245,18.7139282,28,17.3873291,28,16s-0.2473755-2.7139282-0.6804199-3.9534912H22.4195557z M24.4553223,19.507019
	c-0.4093018,0-0.7414551-0.3314209-0.7414551-0.7409668c0-0.4090576,0.3321533-0.7409668,0.7414551-0.7409668
	c0.4088745,0,0.7407837,0.3319092,0.7407837,0.7409668C25.196106,19.1755981,24.8641968,19.507019,24.4553223,19.507019z"/>
<path class="st5" d="M21.6881104,13.4512329v-1.4047241h-1.2896118
	C20.9163818,12.4256592,21.3522339,12.9018555,21.6881104,13.4512329z"/>
<path class="st5" d="M9.2442627,19.9534912c-1.2220459-0.8926392-2.0249023-2.3256836-2.0253296-3.954895
	c0.0004272-1.6276245,0.8015137-3.059082,2.0212402-3.9520874H4.6804199C4.2473755,13.2860718,4,14.6126709,4,16
	s0.2473755,2.7139282,0.6804199,3.9534912H9.2442627z"/>
<path class="st6" d="M9.8118896,15.9987793c0.0007324,1.539856,1.2488403,2.7879639,2.7891846,2.7879639
	c1.5397949,0,2.7879639-1.2481079,2.7879639-2.7879639c0-1.5410156-1.2481689-2.7884521-2.7879639-2.7891235
	C11.06073,13.2103271,9.8126221,14.4577637,9.8118896,15.9987793z M14.6575317,15.9987793
	c-0.0018921,1.1353149-0.9209595,2.0546265-2.0564575,2.0565186c-1.1364746-0.0018921-2.0551147-0.9212036-2.0574951-2.0565186
	c0.0023804-1.1364746,0.9210205-2.0550537,2.0574951-2.0576782C13.7365723,13.9437256,14.6556396,14.8623047,14.6575317,15.9987793z
	"/>
<path class="st7" d="M12.6010742,18.0552979c1.135498-0.0018921,2.0545654-0.9212036,2.0564575-2.0565186
	c-0.0018921-1.1364746-0.9209595-2.0550537-2.0564575-2.0576782c-1.1364746,0.0026245-2.0551147,0.9212036-2.0574951,2.0576782
	C10.5459595,17.1340942,11.4645996,18.0534058,12.6010742,18.0552979z"/>
<path class="st6" d="M17.2860107,14.8080444h1.5964966c0.2016602,0,0.3657227-0.1640625,0.3657227-0.3659668
	c0-0.2023926-0.1640625-0.3657227-0.3657227-0.3657227h-1.5964966c-0.2017212,0-0.3657227,0.1633301-0.3657227,0.3657227
	C16.9202881,14.6439819,17.0842896,14.8080444,17.2860107,14.8080444z"/>
<path class="st6" d="M17.2866821,16.40979h1.5960693c0.2021484,0,0.3654785-0.1633301,0.3654785-0.3652954
	c0-0.2021484-0.1633301-0.3662109-0.3654785-0.3662109h-1.5960693c-0.2025757,0-0.3659058,0.1640625-0.3659058,0.3662109
	C16.9207764,16.24646,17.0841064,16.40979,17.2866821,16.40979z"/>
<path class="st6" d="M18.8822632,17.2807617h-1.5960083c-0.2021484,0-0.3654785,0.1643066-0.3654785,0.3664551
	c0,0.201416,0.1633301,0.3654785,0.3654785,0.3654785h1.5960083c0.2021484,0,0.3664551-0.1640625,0.3664551-0.3654785
	C19.2487183,17.4450684,19.0844116,17.2807617,18.8822632,17.2807617z"/>
</svg>
