<?xml version="1.0" encoding="utf-8"?>
<!-- Generator: Adobe Illustrator 22.0.1, SVG Export Plug-In . SVG Version: 6.00 Build 0)  -->
<svg version="1.1" id="Слой_1" xmlns="http://www.w3.org/2000/svg" xmlns:xlink="http://www.w3.org/1999/xlink" x="0px" y="0px"
	 viewBox="0 0 40 40" style="enable-background:new 0 0 40 40;" xml:space="preserve">
<style type="text/css">
	.st0{fill:#333333;}
</style>
<path class="st0" d="M26.4,7.1c-0.9-0.4-1.8-0.6-2.7-0.8l0.4-2c1.1,0.2,2.1,0.5,3.1,0.9L26.4,7.1z M20.9,6V4c-1.1,0-2.1,0.1-3.2,0.3
	l0.4,2C19,6.1,20,6,20.9,6z M32.5,8.8c-0.7-0.8-1.6-1.5-2.4-2.1L29,8.4c0.7,0.6,1.4,1.2,2,1.8c2.5,2.6,4,6.1,4,9.8
	c0,3.9-1.6,7.4-4.1,9.9l0,0c-0.2,0.2-0.4,0.4-0.6,0.6C27.8,32.7,24.6,34,21,34s-6.8-1.3-9.3-3.5c-0.2-0.2-0.4-0.4-0.6-0.6
	c-0.2-0.2-0.4-0.4-0.6-0.6c-2-2.3-3.3-5.4-3.5-8.7c0-0.2,0-0.4,0-0.6v-1.4l1.2,3l1.8-1.2L6.8,16H5.2L2,20.4l1.8,1.1l1.2-3V20
	c0,3.9,1.4,7.7,4,10.6c0.4,0.5,0.9,1,1.4,1.4c2.9,2.6,6.6,4,10.6,4s7.7-1.4,10.6-4c3.3-2.9,5.4-7.2,5.4-12
	C37,15.8,35.4,11.8,32.5,8.8z M10.8,10.4L9.4,9c-0.7,0.8-1.4,1.6-2,2.5l1.7,1.1C9.6,11.8,10.2,11,10.8,10.4z M15,20h2v-8h6
	c2.8,0,5,2.2,5,5s-2.2,5-5,5h-4v2h6v2h-6v3h-2v-3h-2v-2h2v-2h-2V20z M19,20h4c1.7,0,3-1.3,3-3s-1.3-3-3-3h-4V20z M15.4,7.2l-0.8-1.8
	c-1,0.4-1.9,1-2.8,1.6L13,8.5C13.7,8,14.6,7.5,15.4,7.2z"/>
</svg>
