<?xml version="1.0" encoding="utf-8"?>
<!-- Generator: Adobe Illustrator 22.0.1, SVG Export Plug-In . SVG Version: 6.00 Build 0)  -->
<svg version="1.1" id="Ready" xmlns="http://www.w3.org/2000/svg" xmlns:xlink="http://www.w3.org/1999/xlink" x="0px" y="0px"
	 viewBox="0 0 40 40" style="enable-background:new 0 0 40 40;" xml:space="preserve">
<title>Artboard 33</title>
<path d="M32.1,13C28.3,6.3,19.7,4,13,7.9S4,20.3,7.9,27s12.4,9,19.1,5.1c2.1-1.2,3.9-3,5.1-5.1l1.7,1c-4.4,7.7-14.2,10.3-21.9,5.9
	S1.7,19.7,6.1,12S20.4,1.7,28,6.1c2.4,1.4,4.5,3.4,5.9,5.9L32.1,13z M37,16h-2v3h-3v2h3v3h2v-3h3v-2h-3V16z M18,26v-2h1v-2h-1v-3h-2
	v3h-3.7l2.5-7.7l-1.9-0.6l-2.7,8.4l-0.1,0.5l0.9,1.3H16v2H18z M28.3,16.7l1.2-1.6c-2.5-1.8-5.9-1.5-8,0.6c-2.4,2.4-2.4,6.3,0,8.7
	c1.2,1.2,2.7,1.8,4.3,1.8c1.3,0,2.6-0.4,3.7-1.2l0.4-0.3V19h-4.1V21h2.1v2.5c-1.6,0.9-3.7,0.7-5-0.7c-1.6-1.6-1.6-4.2,0-5.8
	C24.4,15.6,26.7,15.5,28.3,16.7z"/>
</svg>
