<?xml version="1.0" encoding="UTF-8"?>
<svg viewBox="0 0 32 32" version="1.1" xmlns="http://www.w3.org/2000/svg" xmlns:xlink="http://www.w3.org/1999/xlink">
    <g id="Logo-bubble/24/Megadisk" stroke="none" stroke-width="1" fill="none" fill-rule="evenodd">
        <g id="Group" transform="translate(4.000200, 4.000400)">
            <path d="M12,0 C5.4,0 0,5.4 0,12 C0,18.599 5.4,24 12,24 C18.599,24 24,18.599 24,12 C24,5.4 18.599,0 12,0 L12,0 Z" id="Path" fill="#00B956"></path>
            <g id="Group-11" transform="translate(3.899800, 5.399600)">
                <path d="M2.99994227,10.1672632 C2.51218545,10.1634898 2.11407636,10.5680023 2.11041727,11.0706241 C2.10675818,11.5736234 2.49901273,11.983796 2.98640364,11.9879468 C3.47416045,11.9913429 3.87226955,11.5872077 3.87592864,11.0842085 C3.87958773,10.5815866 3.48733318,10.1710366 2.99994227,10.1672632" id="Fill-1" fill="#731982"></path>
                <path d="M4.94167545,10.1821683 C4.45428455,10.1783948 4.05617545,10.5829073 4.05215045,11.0859066 C4.04885727,11.5885284 4.44111182,11.9990784 4.92850273,12.0028519 C5.41589364,12.0066253 5.81436864,11.6021128 5.81802773,11.0994909 C5.82132091,10.5968691 5.42906636,10.1859417 4.94167545,10.1821683" id="Fill-3" fill="#731982"></path>
                <path d="M6.88381114,10.197262 C6.39642023,10.1934886 5.99794523,10.5980011 5.99428614,11.1010003 C5.99099295,11.6036222 6.38288159,12.0141722 6.87063841,12.0179456 C7.35802932,12.0217191 7.75613841,11.6172066 7.76016341,11.1145847 C7.76345659,10.6115855 7.37120205,10.2010355 6.88381114,10.197262" id="Fill-5" fill="#FFFFFF"></path>
                <path d="M9.66955023,6.17749453 L8.3442275,4.1960625 L8.34386159,4.19568516 L7.72913432,4.19568516 L7.72876841,4.1960625 L6.40381159,6.17749453 L7.05695932,6.64162734 L7.63765705,5.77335938 L7.63765705,9.46906406 L8.43350932,9.46906406 L8.43350932,5.77071797 L9.01603659,6.64162734 L9.66955023,6.17749453 Z M15.973798,7.78648828 C15.9679434,10.132057 14.3444048,11.7697289 12.0263707,11.7697289 L8.11260705,11.7697289 L8.11260705,10.8086344 L12.0263707,10.8086344 C13.8255457,10.8086344 15.0367048,9.59321016 15.0407298,7.78460156 C15.0443889,6.25975547 13.9645911,4.87075313 12.5825525,4.62170625 L12.2082275,4.55378438 L12.1968843,4.16210156 C12.150048,2.57914453 10.878148,1.33843828 9.30071386,1.33843828 C8.50376386,1.33843828 7.12026159,1.84898438 6.57688659,3.25458984 L6.37783205,3.76815469 L5.91202977,3.49344844 C5.52489795,3.26553281 5.16008659,3.17836641 4.83552523,3.17836641 C4.24933886,3.17836641 3.79231841,3.46288359 3.55886841,3.70815703 C3.31334341,3.96701484 2.77911614,4.67415703 3.12014341,5.65374141 L3.28919341,6.14089219 L2.80546159,6.27975469 C2.03997977,6.49785938 0.933104773,7.46650078 0.933104773,8.64532266 C0.933104773,9.33548438 1.07397977,9.7988625 1.4051275,10.1946961 C1.52295023,10.3354453 1.66126386,10.4520445 1.81018886,10.5467578 L1.81018886,11.6014336 C1.39012523,11.4489867 1.00006614,11.182582 0.698557045,10.8229734 C0.215922955,10.2445055 3.65909091e-05,9.57321094 3.65909091e-05,8.64532266 C3.65909091e-05,7.13104219 1.14533205,5.99070938 2.12121159,5.52091641 C1.88629795,4.22700469 2.63421614,3.30704063 2.89254795,3.03573047 C3.54825705,2.34443672 4.70233432,1.93954688 5.92483659,2.43537656 C6.68885477,1.02486562 8.16017523,0.37734375 9.30071386,0.37734375 C11.260157,0.37734375 12.862473,1.83426797 13.0992161,3.75834375 C14.7655661,4.24021172 15.977457,5.90693906 15.973798,7.78648828 L15.973798,7.78648828 Z" id="Fill-8" fill="#FFFFFF"></path>
            </g>
        </g>
    </g>
</svg>